<svg version="1.1" id="Layer_1" xmlns="http://www.w3.org/2000/svg" xmlns:xlink="http://www.w3.org/1999/xlink" x="0px" y="0px"
	 width="100%" viewBox="0 0 2048 2048" enable-background="new 0 0 2048 2048" xml:space="preserve">
<path fill="#F2F2F2" opacity="1.000000" stroke="none" 
	d="
M1329.000000,2049.000000 
	C886.000000,2049.000000 443.500000,2049.000000 1.000000,2049.000000 
	C1.000000,1366.333374 1.000000,683.666687 1.000000,1.000000 
	C683.666687,1.000000 1366.333374,1.000000 2049.000000,1.000000 
	C2049.000000,683.666687 2049.000000,1366.333374 2049.000000,2049.000000 
	C1809.166626,2049.000000 1569.333374,2049.000000 1329.000000,2049.000000 
M1297.015503,786.929382 
	C1297.015503,786.929382 1297.182861,786.849731 1297.042969,786.181091 
	C1285.310791,774.180176 1273.592651,762.165527 1261.843506,750.181396 
	C1234.673096,722.467896 1207.542725,694.715149 1180.291016,667.081909 
	C1159.132690,645.627441 1137.729858,624.413818 1116.597656,602.933899 
	C1101.438110,587.524963 1086.572144,571.827454 1071.526245,556.306152 
	C1059.242676,543.634399 1046.909180,531.010925 1034.554321,518.408508 
	C1027.705933,511.422974 1020.768433,504.524689 1014.349182,498.067871 
	C886.444641,625.622314 759.011475,752.706665 631.334839,880.033813 
	C632.346008,880.718933 633.093079,881.305115 633.910400,881.766846 
	C646.070984,888.635742 658.241272,895.487427 670.408447,902.344666 
	C719.864685,930.217346 769.352783,958.033875 818.765076,985.984497 
	C849.173950,1003.185669 879.441162,1020.637146 909.820801,1037.890381 
	C931.224854,1050.046265 952.743896,1061.999756 974.150391,1074.151367 
	C992.089844,1084.334717 1009.831909,1094.870239 1027.870483,1104.872925 
	C1039.276123,1111.197632 1048.943726,1109.748047 1058.607422,1100.983276 
	C1061.430664,1098.422607 1064.193481,1095.649536 1066.368530,1092.542969 
	C1082.571655,1069.400879 1098.717773,1046.217407 1114.666870,1022.899963 
	C1120.724365,1014.043945 1120.452148,1013.891052 1129.532227,1019.552979 
	C1148.039673,1031.093140 1166.556152,1042.618530 1185.085205,1054.123901 
	C1194.423340,1059.922485 1203.196899,1059.912964 1211.313354,1052.514526 
	C1228.044434,1037.263306 1244.481201,1021.670044 1260.611938,1005.783813 
	C1288.270386,978.544556 1315.776489,951.145142 1342.999634,923.471558 
	C1357.712524,908.515137 1371.706299,892.851379 1386.024536,877.506714 
	C1386.629883,877.109924 1385.257690,875.035889 1383.545532,873.296387 
	C1356.210205,845.523987 1328.838745,817.787048 1301.438965,790.078369 
	C1300.182983,788.808289 1298.582153,787.879211 1297.015503,786.929382 
M503.043640,1384.499512 
	C503.043640,1352.539307 503.043640,1320.578979 503.043640,1288.618774 
	C503.582733,1288.509277 504.121857,1288.399780 504.660950,1288.290283 
	C505.791351,1289.652222 507.011475,1290.950195 508.037689,1292.386597 
	C515.298218,1302.549072 522.625000,1312.666870 529.724976,1322.940918 
	C538.150818,1335.133789 546.350586,1347.482666 554.688171,1359.736694 
	C558.870544,1365.883545 560.841003,1365.867432 565.274109,1359.798218 
	C565.568726,1359.394775 565.837158,1358.972534 566.122192,1358.562134 
	C580.943787,1337.225952 595.756714,1315.883789 610.607910,1294.568359 
	C611.640320,1293.086670 612.958435,1291.803833 614.143738,1290.428589 
	C614.549255,1290.610596 614.954834,1290.792480 615.360352,1290.974487 
	C615.360352,1328.298706 615.360352,1365.622803 615.360352,1403.071899 
	C627.206360,1403.071899 638.396729,1403.071899 649.555176,1403.071899 
	C649.693054,1402.129028 649.827881,1401.638306 649.827515,1401.147705 
	C649.793274,1348.496338 649.719482,1295.845093 649.770508,1243.193848 
	C649.773926,1239.667114 648.269287,1239.077026 645.265686,1239.097778 
	C634.103149,1239.174927 622.937195,1239.182007 611.777405,1238.965698 
	C608.657349,1238.905151 607.010376,1240.201904 605.398987,1242.648682 
	C594.866028,1258.641724 584.217773,1274.558960 573.561157,1290.470337 
	C569.150513,1297.056030 564.626465,1303.565796 559.899109,1310.483154 
	C558.237183,1308.269531 556.932007,1306.760742 555.878357,1305.092896 
	C542.893860,1284.538940 529.876343,1264.005127 517.065125,1243.343506 
	C515.172729,1240.291382 513.214600,1238.956909 509.557037,1239.016357 
	C497.564240,1239.211304 485.557892,1239.283081 473.572845,1238.899536 
	C468.728546,1238.744629 467.842346,1240.496338 467.855896,1244.891846 
	C467.995544,1290.212036 467.937775,1335.532593 467.935120,1380.853149 
	C467.934692,1388.167847 467.935028,1395.482422 467.935028,1403.179932 
	C479.813812,1403.179932 491.215698,1403.179932 503.059601,1403.179932 
	C503.059601,1397.105835 503.059601,1391.302490 503.043640,1384.499512 
M1093.479736,1239.117920 
	C1076.200806,1239.117920 1058.921875,1239.117920 1041.552979,1239.117920 
	C1041.552979,1294.147461 1041.552979,1348.693237 1041.552979,1403.492920 
	C1047.720947,1403.492920 1053.453857,1403.492920 1059.726807,1403.492920 
	C1059.726807,1401.349854 1059.736450,1399.560059 1059.725342,1397.770264 
	C1059.610107,1379.273193 1059.589722,1360.774414 1059.297852,1342.280151 
	C1059.232910,1338.160767 1060.460449,1336.675171 1064.669556,1336.922241 
	C1070.315796,1337.253662 1076.046387,1337.457520 1081.648926,1336.858521 
	C1087.305786,1336.253662 1090.360718,1338.572144 1093.231079,1343.146484 
	C1105.181274,1362.190552 1117.442627,1381.040039 1129.680664,1399.901855 
	C1130.687988,1401.454346 1132.306152,1403.601074 1133.761353,1403.700317 
	C1139.967163,1404.123291 1146.218506,1403.880371 1153.470703,1403.880371 
	C1138.234497,1380.786377 1123.583618,1358.579346 1108.626465,1335.908447 
	C1111.310669,1335.144653 1112.726074,1334.711914 1114.157104,1334.339111 
	C1133.027588,1329.422119 1144.579468,1317.433594 1147.473022,1298.152832 
	C1150.281982,1279.436279 1147.463501,1261.998291 1131.311279,1249.530640 
	C1120.547119,1241.222046 1107.721069,1239.167969 1093.479736,1239.117920 
M1527.266968,1301.767212 
	C1545.842041,1281.220459 1564.417114,1260.673706 1582.992188,1240.126953 
	C1582.747437,1239.726807 1582.502686,1239.326782 1582.257935,1238.926636 
	C1575.807983,1238.926636 1569.350220,1238.757935 1562.913574,1239.050171 
	C1561.383789,1239.119629 1559.593628,1240.436035 1558.481079,1241.678467 
	C1537.588257,1265.008911 1516.783691,1288.418335 1495.937744,1311.790894 
	C1495.067261,1312.766846 1493.972900,1313.543213 1491.938232,1315.329590 
	C1491.938232,1289.128906 1491.938232,1264.404297 1491.938232,1239.480835 
	C1485.505615,1239.480835 1479.658569,1239.480835 1473.944702,1239.480835 
	C1473.944702,1294.320068 1473.944702,1348.717285 1473.944702,1403.236206 
	C1480.293701,1403.236206 1486.205444,1403.236206 1492.955566,1403.236206 
	C1492.955566,1376.809814 1492.955566,1350.722900 1492.955566,1323.224121 
	C1495.427979,1325.538086 1496.830688,1326.671509 1498.023926,1327.994141 
	C1519.784302,1352.112671 1541.510742,1376.262085 1563.287231,1400.366211 
	C1564.348511,1401.540771 1565.769287,1403.158936 1567.078369,1403.212769 
	C1573.989990,1403.497437 1580.919556,1403.346313 1588.460205,1403.346313 
	C1587.580444,1401.873657 1587.258789,1401.094238 1586.733643,1400.492188 
	C1577.430542,1389.824341 1568.185669,1379.104248 1558.760864,1368.544556 
	C1544.561768,1352.635620 1530.280518,1336.799072 1515.912964,1321.042114 
	C1513.533081,1318.431885 1513.239868,1316.540771 1515.857422,1313.964844 
	C1519.653931,1310.228882 1523.166992,1306.204956 1527.266968,1301.767212 
M1244.500000,1364.416138 
	C1253.992920,1364.389282 1263.499634,1364.657593 1272.972778,1364.211914 
	C1277.759766,1363.986816 1280.007202,1365.480957 1281.649170,1370.018555 
	C1285.325806,1380.179077 1289.613525,1390.121948 1293.808472,1400.087646 
	C1294.368530,1401.418457 1295.782227,1403.278198 1296.889526,1403.341431 
	C1302.627563,1403.669800 1308.394409,1403.494141 1314.578125,1403.494141 
	C1313.928833,1401.776489 1313.509277,1400.556152 1313.012573,1399.368164 
	C1296.259644,1359.303345 1279.506226,1319.238770 1262.735840,1279.181274 
	C1257.530029,1266.746704 1252.161133,1254.378662 1247.110962,1241.881470 
	C1245.556274,1238.034302 1242.992065,1237.485840 1239.333252,1237.420898 
	C1235.758789,1237.357300 1234.915283,1239.473755 1233.851196,1242.024292 
	C1230.647827,1249.701294 1227.261841,1257.302124 1224.050171,1264.975952 
	C1205.358521,1309.637451 1186.693359,1354.310181 1168.038208,1398.987061 
	C1167.444214,1400.409302 1167.055786,1401.917480 1166.374023,1403.984863 
	C1171.666504,1403.984863 1176.159180,1403.790527 1180.626221,1404.046875 
	C1184.153809,1404.249268 1185.906128,1403.066528 1187.127441,1399.587280 
	C1190.872925,1388.917969 1195.125854,1378.427856 1199.034790,1367.814087 
	C1200.046997,1365.065552 1201.472900,1364.048950 1204.532593,1364.113037 
	C1217.518066,1364.385376 1230.510254,1364.343506 1244.500000,1364.416138 
M689.863525,1239.134521 
	C686.166992,1239.052979 687.216614,1241.846069 687.215271,1243.761108 
	C687.179382,1295.225708 687.188477,1346.690308 687.208313,1398.154907 
	C687.208923,1399.738403 687.406250,1401.321777 687.520081,1403.027588 
	C699.084656,1403.027588 710.156921,1403.027588 721.279236,1403.027588 
	C721.441833,1402.005249 721.634094,1401.359863 721.634460,1400.714478 
	C721.665955,1348.250488 721.659973,1295.786621 721.751770,1243.322754 
	C721.757690,1239.931030 720.409180,1239.117310 717.278992,1239.165527 
	C708.454468,1239.302002 699.625610,1239.161743 689.863525,1239.134521 
M1362.655029,1246.186157 
	C1348.012573,1255.042236 1337.891357,1267.577515 1333.828125,1284.200317 
	C1327.752930,1309.053833 1327.943115,1334.164795 1334.241577,1358.912354 
	C1338.624268,1376.132202 1348.941772,1389.403320 1365.125977,1397.501221 
	C1380.273926,1405.080811 1396.566040,1406.163208 1412.965210,1404.406128 
	C1421.809692,1403.458496 1430.486450,1400.749512 1439.147461,1398.484741 
	C1440.534546,1398.122070 1442.603882,1395.647217 1442.364990,1394.605713 
	C1441.346069,1390.162476 1439.578979,1385.890747 1438.006226,1381.327637 
	C1436.316406,1381.940308 1435.370972,1382.192505 1434.505615,1382.610474 
	C1421.290771,1388.994629 1407.254517,1390.068848 1392.999878,1388.412354 
	C1371.250610,1385.884766 1357.052124,1373.348389 1351.768311,1352.053345 
	C1347.124268,1333.336548 1347.804932,1314.314453 1350.381714,1295.438477 
	C1351.665527,1286.033081 1354.956665,1276.979614 1361.386475,1269.537109 
	C1371.335693,1258.020630 1384.455811,1253.531860 1399.165039,1253.079590 
	C1412.293701,1252.675781 1425.011841,1254.820435 1436.727173,1260.937744 
	C1444.322998,1249.947632 1443.901367,1245.158569 1434.252197,1242.170898 
	C1410.254639,1234.740845 1386.405151,1234.095093 1362.655029,1246.186157 
M950.490906,1325.500000 
	C950.490906,1351.435181 950.490906,1377.370361 950.490906,1403.335327 
	C956.523804,1403.335327 962.049561,1403.335327 967.868591,1403.335327 
	C967.868591,1401.353516 967.874268,1399.865601 967.867798,1398.377808 
	C967.772095,1376.385498 967.665649,1354.393311 967.580200,1332.401001 
	C967.486389,1308.242798 967.520935,1284.083130 967.233154,1259.927368 
	C967.177490,1255.254150 968.729919,1253.888550 973.241211,1253.993042 
	C983.564941,1254.232300 993.899109,1254.019531 1004.229004,1253.996094 
	C1008.026978,1253.987427 1011.825012,1253.994629 1015.999390,1253.994629 
	C1015.999390,1248.745361 1015.999390,1244.143066 1015.999390,1239.272949 
	C978.400330,1239.272949 940.903259,1239.272949 903.566284,1239.272949 
	C903.566284,1244.396362 903.566284,1248.971558 903.566284,1253.887817 
	C917.448486,1253.887817 930.922180,1254.086792 944.384460,1253.782593 
	C949.254944,1253.672607 950.643616,1255.286987 950.597900,1260.022705 
	C950.390686,1281.513428 950.498962,1303.007324 950.490906,1325.500000 
M857.578125,1241.796387 
	C844.915649,1263.682617 832.253113,1285.568848 819.149719,1308.217163 
	C817.455444,1305.931885 816.560486,1304.958862 815.928772,1303.837402 
	C806.287415,1286.721802 795.904968,1269.962036 787.361816,1252.312744 
	C782.394043,1242.049561 776.459045,1236.888306 765.047119,1239.122437 
	C763.935547,1239.339844 762.724548,1239.003540 761.559509,1239.001099 
	C754.342041,1238.986450 747.124512,1238.993652 739.083130,1238.993652 
	C740.350769,1241.360718 740.987732,1242.684082 741.741333,1243.937500 
	C760.523804,1275.175171 779.382019,1306.367798 798.007324,1337.698730 
	C799.763000,1340.651978 800.764282,1344.439331 800.907959,1347.889771 
	C801.274963,1356.703613 800.941284,1365.545776 800.921570,1374.376709 
	C800.900146,1383.974609 800.916687,1393.572632 800.916687,1403.298096 
	C812.975830,1403.298096 824.391479,1403.298096 836.238342,1403.298096 
	C836.238342,1401.185059 836.239380,1399.378784 836.238159,1397.572510 
	C836.226807,1380.409790 836.104431,1363.245605 836.314270,1346.085571 
	C836.348572,1343.282593 837.302856,1340.170288 838.753174,1337.753906 
	C856.481018,1308.217285 874.382324,1278.784668 892.234253,1249.322510 
	C894.078003,1246.279663 895.893188,1243.219238 898.229126,1239.319580 
	C884.942688,1239.319580 872.825867,1239.280151 860.710510,1239.397095 
	C859.780579,1239.406006 858.861206,1240.518921 857.578125,1241.796387 
z"/>
<path fill="#38AFC2" opacity="1.000000" stroke="none" 
	d="
M1297.141968,786.791260 
	C1298.582153,787.879211 1300.182983,788.808289 1301.438965,790.078369 
	C1328.838745,817.787048 1356.210205,845.523987 1383.545532,873.296387 
	C1385.257690,875.035889 1386.629883,877.109924 1386.024536,877.506714 
	C1371.706299,892.851379 1357.712524,908.515137 1342.999634,923.471558 
	C1315.776489,951.145142 1288.270386,978.544556 1260.611938,1005.783813 
	C1244.481201,1021.670044 1228.044434,1037.263306 1211.313354,1052.514526 
	C1203.196899,1059.912964 1194.423340,1059.922485 1185.085205,1054.123901 
	C1166.556152,1042.618530 1148.039673,1031.093140 1129.532227,1019.552979 
	C1120.452148,1013.891052 1120.724365,1014.043945 1114.666870,1022.899963 
	C1098.717773,1046.217407 1082.571655,1069.400879 1066.368530,1092.542969 
	C1064.193481,1095.649536 1061.430664,1098.422607 1058.607422,1100.983276 
	C1048.943726,1109.748047 1039.276123,1111.197632 1027.870483,1104.872925 
	C1009.831909,1094.870239 992.089844,1084.334717 974.150391,1074.151367 
	C952.743896,1061.999756 931.224854,1050.046265 909.820801,1037.890381 
	C879.441162,1020.637146 849.173950,1003.185669 818.765076,985.984497 
	C769.352783,958.033875 719.864685,930.217346 670.408447,902.344666 
	C658.241272,895.487427 646.070984,888.635742 633.910400,881.766846 
	C633.093079,881.305115 632.346008,880.718933 631.334839,880.033813 
	C759.011475,752.706665 886.444641,625.622314 1014.349182,498.067871 
	C1020.768433,504.524689 1027.705933,511.422974 1034.554321,518.408508 
	C1046.909180,531.010925 1059.242676,543.634399 1071.526245,556.306152 
	C1086.572144,571.827454 1101.438110,587.524963 1116.597656,602.933899 
	C1137.729858,624.413818 1159.132690,645.627441 1180.291016,667.081909 
	C1207.542725,694.715149 1234.673096,722.467896 1261.843506,750.181396 
	C1273.592651,762.165527 1285.310791,774.180176 1296.797363,786.445068 
	C1295.362061,785.815674 1294.172241,784.922363 1292.829834,783.750305 
	C1291.793335,782.961487 1290.909424,782.451538 1289.963257,781.613159 
	C1283.475952,774.849426 1277.029175,768.435608 1270.632812,761.971863 
	C1265.399170,756.683289 1260.225952,751.334961 1254.869141,745.727417 
	C1253.138550,743.957336 1251.564697,742.472961 1249.849976,740.697937 
	C1248.143066,738.939514 1246.577148,737.471680 1244.866699,735.729675 
	C1243.814087,734.629578 1242.905884,733.803772 1241.850098,732.681946 
	C1236.359375,726.973145 1231.056396,721.519714 1225.659302,716.161194 
	C1221.851440,712.380676 1217.915649,708.729004 1214.021729,705.006531 
	C1214.006592,704.993286 1213.980469,704.962341 1213.953369,704.638672 
	C1212.946289,703.230835 1211.966431,702.146667 1210.975830,701.048706 
	C1210.964966,701.034973 1210.937256,701.013428 1210.806152,700.710083 
	C1207.789551,697.936218 1204.904175,695.465637 1201.897217,692.782959 
	C1201.571289,692.306152 1201.314331,692.110596 1200.965942,691.644897 
	C1198.944092,689.211853 1196.961060,687.117981 1194.835693,684.750000 
	C1193.790283,683.650574 1192.887329,682.825256 1191.841187,681.700684 
	C1181.798706,671.604248 1171.899292,661.807007 1161.840820,651.717285 
	C1156.119019,645.939819 1150.556274,640.454956 1144.846191,634.674927 
	C1142.751221,632.364624 1140.891479,630.254456 1138.837524,628.354370 
	C1134.660278,624.490112 1130.378296,620.739197 1126.104980,616.609802 
	C1125.700806,615.515686 1125.330933,614.753357 1124.821533,613.694092 
	C1123.136841,612.257141 1121.591797,611.117188 1120.028320,609.983276 
	C1120.009888,609.989380 1120.022827,609.952942 1119.978027,609.617615 
	C1117.950684,607.197510 1115.968018,605.112732 1113.834473,602.736389 
	C1111.787354,600.631042 1109.891235,598.817200 1107.850098,596.703979 
	C1102.632690,591.206421 1097.572998,585.995728 1092.485107,580.812866 
	C1085.336060,573.530457 1078.166016,566.268799 1070.849854,558.703918 
	C1067.996704,555.336792 1065.515869,552.031189 1062.541992,549.253540 
	C1059.282349,546.208923 1055.567749,543.651550 1051.997559,540.549011 
	C1046.965698,534.813721 1041.987671,529.411194 1036.853027,523.715271 
	C1033.805054,520.605469 1030.913940,517.788940 1027.862671,514.677124 
	C1023.863403,510.476929 1020.169434,506.408203 1016.080627,502.785095 
	C1015.087830,501.905396 1012.078674,501.728485 1011.218384,502.533783 
	C1006.529419,506.922699 1002.247925,511.744476 997.777344,516.369995 
	C992.149475,522.193054 986.458069,527.954712 980.823425,533.771301 
	C973.655090,541.171021 966.252930,548.367126 959.448364,556.088806 
	C954.072876,562.188843 949.822754,569.293762 944.338440,575.279480 
	C941.390686,578.496643 936.427063,579.796082 933.189026,582.831360 
	C923.903198,591.535828 915.077576,600.729187 905.976074,609.633240 
	C902.967224,612.576843 899.487488,615.046021 896.538269,618.042358 
	C888.727661,625.977844 881.049683,634.045349 873.399536,642.136475 
	C869.699463,646.049866 866.350342,650.304688 862.543396,654.105469 
	C854.801758,661.834717 846.857117,669.360657 838.700073,677.125244 
	C829.539001,686.060791 820.691528,694.859192 811.803894,703.616760 
	C803.887207,711.417603 795.926147,719.173523 787.711182,727.088257 
	C786.616333,728.122070 785.795105,729.016846 784.680237,730.075073 
	C776.900391,737.819214 769.414185,745.399902 761.633057,753.141113 
	C756.212708,758.827515 751.087097,764.353271 745.667114,770.042114 
	C709.374695,806.250000 673.376709,842.294800 637.378723,878.339539 
	C637.705017,879.068848 638.031250,879.798096 638.357483,880.527405 
	C643.908081,880.691406 649.458618,880.855347 655.341064,881.022705 
	C656.115479,881.019104 656.558044,881.011963 657.469177,881.003540 
	C703.292603,880.992859 748.647400,880.983459 794.251953,881.244629 
	C796.333435,881.333923 798.165161,881.152771 800.465698,880.972046 
	C817.957275,880.973206 834.980042,880.973938 852.235046,881.282410 
	C852.823303,884.702393 853.669617,887.852234 853.434875,890.919250 
	C852.921143,897.631714 851.858887,904.302246 850.964172,911.396729 
	C850.648926,912.592407 850.265686,913.363281 850.149353,914.172546 
	C846.624207,938.697632 843.897522,963.391113 834.111389,986.548828 
	C833.643860,987.655090 834.439575,990.128601 835.449890,990.867493 
	C838.311768,992.960449 841.668701,994.358643 844.690979,996.253235 
	C853.036072,1001.484558 861.152588,1007.099915 869.659180,1012.048218 
	C877.193909,1016.431213 885.131104,1020.122192 893.076416,1024.415283 
	C903.856506,1030.850586 914.450195,1036.990356 925.045288,1043.127686 
	C938.722351,1051.050293 952.434937,1058.912231 966.068726,1066.908691 
	C980.172546,1075.181030 994.181519,1083.615234 1008.303284,1091.856567 
	C1009.274292,1092.423218 1010.839661,1091.971436 1012.457397,1092.062256 
	C1013.846802,1092.911743 1014.870300,1093.749634 1015.974121,1094.463135 
	C1021.672241,1098.146240 1028.015625,1100.293091 1034.257080,1102.856201 
	C1045.230225,1107.362427 1053.962280,1104.731079 1060.056763,1095.446167 
	C1063.041504,1090.898926 1065.780029,1086.366577 1070.311279,1082.788330 
	C1074.205322,1079.713379 1076.833984,1074.886597 1079.595581,1070.562012 
	C1083.685547,1064.156738 1087.169800,1057.359985 1091.348755,1051.017578 
	C1094.310425,1046.522461 1098.251343,1042.679077 1101.297119,1038.231201 
	C1106.328979,1030.882812 1110.830200,1023.168884 1115.923462,1015.865906 
	C1117.178467,1014.066467 1119.853760,1013.257385 1122.107300,1012.259033 
	C1130.599976,1017.628601 1138.907349,1022.660095 1147.112549,1027.852905 
	C1159.369263,1035.609741 1171.559937,1043.471069 1183.767700,1051.304932 
	C1195.321533,1058.719360 1203.534546,1057.454346 1210.074463,1051.415039 
	C1223.597534,1038.927124 1236.900391,1026.196289 1250.114014,1013.379883 
	C1256.286377,1007.393127 1261.908936,1000.842468 1268.012329,994.780701 
	C1279.673584,983.199097 1291.485229,971.768799 1303.263184,960.305359 
	C1314.084106,949.773438 1325.066406,939.404236 1335.749268,928.734680 
	C1345.827759,918.668762 1355.436401,908.129578 1365.596680,898.149902 
	C1370.296631,893.533569 1374.486084,889.205872 1372.582031,881.968750 
	C1375.800537,881.949036 1378.613647,882.178772 1381.338135,881.789307 
	C1382.554688,881.615540 1383.692627,880.286377 1384.615234,879.256714 
	C1384.769287,879.084839 1383.637817,877.760742 1383.067871,876.968079 
	C1383.035278,876.967041 1383.031616,876.901855 1382.986694,876.563599 
	C1374.286987,867.163086 1365.632202,858.100708 1356.986328,849.021729 
	C1356.995117,849.005188 1356.961792,849.022461 1356.834229,848.730408 
	C1355.466553,847.298035 1354.226562,846.157715 1352.812988,844.781372 
	C1352.098633,844.348083 1351.557983,844.150940 1350.905518,843.746948 
	C1350.599243,843.282471 1350.350830,843.096985 1350.006958,842.687744 
	C1349.634399,841.920105 1349.303589,841.448242 1348.827148,840.676758 
	C1346.253906,838.134766 1343.744995,835.973450 1341.412964,833.635864 
	C1332.261475,824.462402 1323.165649,815.233398 1314.034424,806.005676 
	C1314.019653,805.986328 1313.989014,805.948547 1313.953613,805.611450 
	C1311.599365,802.861511 1309.280640,800.448608 1306.841675,797.825928 
	C1306.520264,797.354431 1306.268311,797.158020 1305.827881,796.724731 
	C1303.120605,793.967102 1300.550781,791.511475 1297.977417,789.040771 
	C1297.973877,789.025757 1297.943604,789.019409 1297.844238,788.739502 
	C1297.544067,787.903442 1297.343018,787.347351 1297.141968,786.791260 
z"/>
<path fill="#0AA3C1" opacity="1.000000" stroke="none" 
	d="
M503.051636,1384.999268 
	C503.059601,1391.302490 503.059601,1397.105835 503.059601,1403.179932 
	C491.215698,1403.179932 479.813812,1403.179932 467.935028,1403.179932 
	C467.935028,1395.482422 467.934692,1388.167847 467.935120,1380.853149 
	C467.937775,1335.532593 467.995544,1290.212036 467.855896,1244.891846 
	C467.842346,1240.496338 468.728546,1238.744629 473.572845,1238.899536 
	C485.557892,1239.283081 497.564240,1239.211304 509.557037,1239.016357 
	C513.214600,1238.956909 515.172729,1240.291382 517.065125,1243.343506 
	C529.876343,1264.005127 542.893860,1284.538940 555.878357,1305.092896 
	C556.932007,1306.760742 558.237183,1308.269531 559.899109,1310.483154 
	C564.626465,1303.565796 569.150513,1297.056030 573.561157,1290.470337 
	C584.217773,1274.558960 594.866028,1258.641724 605.398987,1242.648682 
	C607.010376,1240.201904 608.657349,1238.905151 611.777405,1238.965698 
	C622.937195,1239.182007 634.103149,1239.174927 645.265686,1239.097778 
	C648.269287,1239.077026 649.773926,1239.667114 649.770508,1243.193848 
	C649.719482,1295.845093 649.793274,1348.496338 649.827515,1401.147705 
	C649.827881,1401.638306 649.693054,1402.129028 649.555176,1403.071899 
	C638.396729,1403.071899 627.206360,1403.071899 615.360352,1403.071899 
	C615.360352,1365.622803 615.360352,1328.298706 615.360352,1290.974487 
	C614.954834,1290.792480 614.549255,1290.610596 614.143738,1290.428589 
	C612.958435,1291.803833 611.640320,1293.086670 610.607910,1294.568359 
	C595.756714,1315.883789 580.943787,1337.225952 566.122192,1358.562134 
	C565.837158,1358.972534 565.568726,1359.394775 565.274109,1359.798218 
	C560.841003,1365.867432 558.870544,1365.883545 554.688171,1359.736694 
	C546.350586,1347.482666 538.150818,1335.133789 529.724976,1322.940918 
	C522.625000,1312.666870 515.298218,1302.549072 508.037689,1292.386597 
	C507.011475,1290.950195 505.791351,1289.652222 504.660950,1288.290283 
	C504.121857,1288.399780 503.582733,1288.509277 503.043640,1288.618774 
	C503.043640,1320.578979 503.043640,1352.539307 503.051636,1384.999268 
z"/>
<path fill="#0CA1BD" opacity="1.000000" stroke="none" 
	d="
M1093.974731,1239.121216 
	C1107.721069,1239.167969 1120.547119,1241.222046 1131.311279,1249.530640 
	C1147.463501,1261.998291 1150.281982,1279.436279 1147.473022,1298.152832 
	C1144.579468,1317.433594 1133.027588,1329.422119 1114.157104,1334.339111 
	C1112.726074,1334.711914 1111.310669,1335.144653 1108.626465,1335.908447 
	C1123.583618,1358.579346 1138.234497,1380.786377 1153.470703,1403.880371 
	C1146.218506,1403.880371 1139.967163,1404.123291 1133.761353,1403.700317 
	C1132.306152,1403.601074 1130.687988,1401.454346 1129.680664,1399.901855 
	C1117.442627,1381.040039 1105.181274,1362.190552 1093.231079,1343.146484 
	C1090.360718,1338.572144 1087.305786,1336.253662 1081.648926,1336.858521 
	C1076.046387,1337.457520 1070.315796,1337.253662 1064.669556,1336.922241 
	C1060.460449,1336.675171 1059.232910,1338.160767 1059.297852,1342.280151 
	C1059.589722,1360.774414 1059.610107,1379.273193 1059.725342,1397.770264 
	C1059.736450,1399.560059 1059.726807,1401.349854 1059.726807,1403.492920 
	C1053.453857,1403.492920 1047.720947,1403.492920 1041.552979,1403.492920 
	C1041.552979,1348.693237 1041.552979,1294.147461 1041.552979,1239.117920 
	C1058.921875,1239.117920 1076.200806,1239.117920 1093.974731,1239.121216 
M1061.843628,1321.804932 
	C1074.314209,1321.587280 1086.811646,1321.813721 1099.249512,1321.057983 
	C1123.950562,1319.557373 1133.168457,1300.951782 1129.428833,1280.520996 
	C1126.613281,1265.138550 1113.795044,1255.558472 1096.313965,1254.951172 
	C1085.181152,1254.564453 1074.031982,1254.674927 1062.894653,1254.388428 
	C1059.748535,1254.307495 1058.928589,1255.557983 1058.944214,1258.498413 
	C1059.049927,1278.292969 1058.989014,1298.088379 1059.121948,1317.882690 
	C1059.130737,1319.187866 1060.293457,1320.485229 1061.843628,1321.804932 
z"/>
<path fill="#0CA1BD" opacity="1.000000" stroke="none" 
	d="
M1527.033936,1302.035522 
	C1523.166992,1306.204956 1519.653931,1310.228882 1515.857422,1313.964844 
	C1513.239868,1316.540771 1513.533081,1318.431885 1515.912964,1321.042114 
	C1530.280518,1336.799072 1544.561768,1352.635620 1558.760864,1368.544556 
	C1568.185669,1379.104248 1577.430542,1389.824341 1586.733643,1400.492188 
	C1587.258789,1401.094238 1587.580444,1401.873657 1588.460205,1403.346313 
	C1580.919556,1403.346313 1573.989990,1403.497437 1567.078369,1403.212769 
	C1565.769287,1403.158936 1564.348511,1401.540771 1563.287231,1400.366211 
	C1541.510742,1376.262085 1519.784302,1352.112671 1498.023926,1327.994141 
	C1496.830688,1326.671509 1495.427979,1325.538086 1492.955566,1323.224121 
	C1492.955566,1350.722900 1492.955566,1376.809814 1492.955566,1403.236206 
	C1486.205444,1403.236206 1480.293701,1403.236206 1473.944702,1403.236206 
	C1473.944702,1348.717285 1473.944702,1294.320068 1473.944702,1239.480835 
	C1479.658569,1239.480835 1485.505615,1239.480835 1491.938232,1239.480835 
	C1491.938232,1264.404297 1491.938232,1289.128906 1491.938232,1315.329590 
	C1493.972900,1313.543213 1495.067261,1312.766846 1495.937744,1311.790894 
	C1516.783691,1288.418335 1537.588257,1265.008911 1558.481079,1241.678467 
	C1559.593628,1240.436035 1561.383789,1239.119629 1562.913574,1239.050171 
	C1569.350220,1238.757935 1575.807983,1238.926636 1582.257935,1238.926636 
	C1582.502686,1239.326782 1582.747437,1239.726807 1582.992188,1240.126953 
	C1564.417114,1260.673706 1545.842041,1281.220459 1527.033936,1302.035522 
z"/>
<path fill="#0CA1BD" opacity="1.000000" stroke="none" 
	d="
M1244.000000,1364.416260 
	C1230.510254,1364.343506 1217.518066,1364.385376 1204.532593,1364.113037 
	C1201.472900,1364.048950 1200.046997,1365.065552 1199.034790,1367.814087 
	C1195.125854,1378.427856 1190.872925,1388.917969 1187.127441,1399.587280 
	C1185.906128,1403.066528 1184.153809,1404.249268 1180.626221,1404.046875 
	C1176.159180,1403.790527 1171.666504,1403.984863 1166.374023,1403.984863 
	C1167.055786,1401.917480 1167.444214,1400.409302 1168.038208,1398.987061 
	C1186.693359,1354.310181 1205.358521,1309.637451 1224.050171,1264.975952 
	C1227.261841,1257.302124 1230.647827,1249.701294 1233.851196,1242.024292 
	C1234.915283,1239.473755 1235.758789,1237.357300 1239.333252,1237.420898 
	C1242.992065,1237.485840 1245.556274,1238.034302 1247.110962,1241.881470 
	C1252.161133,1254.378662 1257.530029,1266.746704 1262.735840,1279.181274 
	C1279.506226,1319.238770 1296.259644,1359.303345 1313.012573,1399.368164 
	C1313.509277,1400.556152 1313.928833,1401.776489 1314.578125,1403.494141 
	C1308.394409,1403.494141 1302.627563,1403.669800 1296.889526,1403.341431 
	C1295.782227,1403.278198 1294.368530,1401.418457 1293.808472,1400.087646 
	C1289.613525,1390.121948 1285.325806,1380.179077 1281.649170,1370.018555 
	C1280.007202,1365.480957 1277.759766,1363.986816 1272.972778,1364.211914 
	C1263.499634,1364.657593 1253.992920,1364.389282 1244.000000,1364.416260 
M1239.500000,1349.948853 
	C1250.537476,1349.948853 1261.574951,1349.948853 1273.105469,1349.948853 
	C1262.063110,1321.694946 1251.311035,1294.183960 1240.445068,1266.381592 
	C1229.182495,1294.156372 1217.998657,1321.737061 1206.561890,1349.941772 
	C1217.887573,1349.941772 1228.193726,1349.941772 1239.500000,1349.948853 
z"/>
<path fill="#0CA1BD" opacity="1.000000" stroke="none" 
	d="
M690.330994,1239.132568 
	C699.625610,1239.161743 708.454468,1239.302002 717.278992,1239.165527 
	C720.409180,1239.117310 721.757690,1239.931030 721.751770,1243.322754 
	C721.659973,1295.786621 721.665955,1348.250488 721.634460,1400.714478 
	C721.634094,1401.359863 721.441833,1402.005249 721.279236,1403.027588 
	C710.156921,1403.027588 699.084656,1403.027588 687.520081,1403.027588 
	C687.406250,1401.321777 687.208923,1399.738403 687.208313,1398.154907 
	C687.188477,1346.690308 687.179382,1295.225708 687.215271,1243.761108 
	C687.216614,1241.846069 686.166992,1239.052979 690.330994,1239.132568 
z"/>
<path fill="#0CA1BD" opacity="1.000000" stroke="none" 
	d="
M1362.979004,1246.014893 
	C1386.405151,1234.095093 1410.254639,1234.740845 1434.252197,1242.170898 
	C1443.901367,1245.158569 1444.322998,1249.947632 1436.727173,1260.937744 
	C1425.011841,1254.820435 1412.293701,1252.675781 1399.165039,1253.079590 
	C1384.455811,1253.531860 1371.335693,1258.020630 1361.386475,1269.537109 
	C1354.956665,1276.979614 1351.665527,1286.033081 1350.381714,1295.438477 
	C1347.804932,1314.314453 1347.124268,1333.336548 1351.768311,1352.053345 
	C1357.052124,1373.348389 1371.250610,1385.884766 1392.999878,1388.412354 
	C1407.254517,1390.068848 1421.290771,1388.994629 1434.505615,1382.610474 
	C1435.370972,1382.192505 1436.316406,1381.940308 1438.006226,1381.327637 
	C1439.578979,1385.890747 1441.346069,1390.162476 1442.364990,1394.605713 
	C1442.603882,1395.647217 1440.534546,1398.122070 1439.147461,1398.484741 
	C1430.486450,1400.749512 1421.809692,1403.458496 1412.965210,1404.406128 
	C1396.566040,1406.163208 1380.273926,1405.080811 1365.125977,1397.501221 
	C1348.941772,1389.403320 1338.624268,1376.132202 1334.241577,1358.912354 
	C1327.943115,1334.164795 1327.752930,1309.053833 1333.828125,1284.200317 
	C1337.891357,1267.577515 1348.012573,1255.042236 1362.979004,1246.014893 
z"/>
<path fill="#0CA1BD" opacity="1.000000" stroke="none" 
	d="
M950.492310,1325.000000 
	C950.498962,1303.007324 950.390686,1281.513428 950.597900,1260.022705 
	C950.643616,1255.286987 949.254944,1253.672607 944.384460,1253.782593 
	C930.922180,1254.086792 917.448486,1253.887817 903.566284,1253.887817 
	C903.566284,1248.971558 903.566284,1244.396362 903.566284,1239.272949 
	C940.903259,1239.272949 978.400330,1239.272949 1015.999390,1239.272949 
	C1015.999390,1244.143066 1015.999390,1248.745361 1015.999390,1253.994629 
	C1011.825012,1253.994629 1008.026978,1253.987427 1004.229004,1253.996094 
	C993.899109,1254.019531 983.564941,1254.232300 973.241211,1253.993042 
	C968.729919,1253.888550 967.177490,1255.254150 967.233154,1259.927368 
	C967.520935,1284.083130 967.486389,1308.242798 967.580200,1332.401001 
	C967.665649,1354.393311 967.772095,1376.385498 967.867798,1398.377808 
	C967.874268,1399.865601 967.868591,1401.353516 967.868591,1403.335327 
	C962.049561,1403.335327 956.523804,1403.335327 950.490906,1403.335327 
	C950.490906,1377.370361 950.490906,1351.435181 950.492310,1325.000000 
z"/>
<path fill="#1C9DB4" opacity="1.000000" stroke="none" 
	d="
M857.757568,1241.457520 
	C858.861206,1240.518921 859.780579,1239.406006 860.710510,1239.397095 
	C872.825867,1239.280151 884.942688,1239.319580 898.229126,1239.319580 
	C895.893188,1243.219238 894.078003,1246.279663 892.234253,1249.322510 
	C874.382324,1278.784668 856.481018,1308.217285 838.753174,1337.753906 
	C837.302856,1340.170288 836.348572,1343.282593 836.314270,1346.085571 
	C836.104431,1363.245605 836.226807,1380.409790 836.238159,1397.572510 
	C836.239380,1399.378784 836.238342,1401.185059 836.238342,1403.298096 
	C824.391479,1403.298096 812.975830,1403.298096 800.916687,1403.298096 
	C800.916687,1393.572632 800.900146,1383.974609 800.921570,1374.376709 
	C800.941284,1365.545776 801.274963,1356.703613 800.907959,1347.889771 
	C800.764282,1344.439331 799.763000,1340.651978 798.007324,1337.698730 
	C779.382019,1306.367798 760.523804,1275.175171 741.741333,1243.937500 
	C740.987732,1242.684082 740.350769,1241.360718 739.083130,1238.993652 
	C747.124512,1238.993652 754.342041,1238.986450 761.559509,1239.001099 
	C762.724548,1239.003540 763.935547,1239.339844 765.047119,1239.122437 
	C776.459045,1236.888306 782.394043,1242.049561 787.361816,1252.312744 
	C795.904968,1269.962036 806.287415,1286.721802 815.928772,1303.837402 
	C816.560486,1304.958862 817.455444,1305.931885 819.149719,1308.217163 
	C832.253113,1285.568848 844.915649,1263.682617 857.757568,1241.457520 
M882.442200,1260.074341 
	C883.413818,1258.727661 884.692688,1257.506958 885.306030,1256.013184 
	C888.672363,1247.814331 886.923523,1243.099731 878.207458,1242.065674 
	C874.756287,1241.656250 871.216187,1241.994019 867.716614,1241.994507 
	C859.139038,1241.995850 859.328857,1242.304321 855.953430,1250.296753 
	C853.339905,1256.485229 849.754883,1262.290771 846.312927,1268.095093 
	C842.024536,1275.327026 837.499146,1282.421143 832.963501,1289.502686 
	C829.274231,1295.262695 829.620544,1302.896118 823.717590,1307.763794 
	C820.133118,1310.719604 817.850952,1311.524292 815.242126,1307.550415 
	C811.518616,1301.878662 808.540833,1295.723267 805.079163,1289.872192 
	C800.124695,1281.498169 795.173584,1273.114624 789.927856,1264.922852 
	C786.332458,1259.308228 781.151123,1254.651367 780.763000,1247.280151 
	C780.672607,1245.564209 779.066833,1242.515625 778.082214,1242.484375 
	C770.661987,1242.249756 763.172729,1242.181763 755.816772,1243.030640 
	C753.250183,1243.326904 751.130249,1246.029053 748.917847,1242.361328 
	C748.592468,1241.821777 746.602539,1242.286377 744.734314,1242.286377 
	C745.453552,1244.211304 745.713135,1245.516357 746.373657,1246.570435 
	C749.545044,1251.630981 753.224670,1256.416870 755.951721,1261.699097 
	C758.600647,1266.830200 765.567139,1268.988159 765.462341,1275.908203 
	C765.455200,1276.380493 766.391296,1276.819702 766.777527,1277.354736 
	C767.749512,1278.701050 768.834839,1280.006226 769.560303,1281.482422 
	C772.284424,1287.025513 774.524292,1292.837402 777.604309,1298.168091 
	C783.605835,1308.554932 790.262146,1318.564087 796.242615,1328.962402 
	C800.593994,1336.527832 804.780457,1344.023193 804.184021,1353.589722 
	C803.397522,1366.205811 803.958374,1378.908203 804.008850,1391.573364 
	C804.038696,1399.062378 805.012024,1399.999390 812.223022,1400.004517 
	C815.555969,1400.006836 818.888916,1400.005127 822.221863,1400.004883 
	C830.534668,1400.004517 832.719482,1398.007935 832.977661,1389.699341 
	C833.390686,1376.409302 834.060120,1363.109253 833.868469,1349.824341 
	C833.723450,1339.772095 838.275146,1331.960938 843.398926,1324.006104 
	C849.583435,1314.404663 855.277893,1304.488037 861.217834,1294.728149 
	C865.668579,1287.415405 870.188843,1280.145020 874.645325,1272.835693 
	C877.113281,1268.787842 879.513794,1264.698853 882.442200,1260.074341 
z"/>
<path fill="#04B3D1" opacity="1.000000" stroke="none" 
	d="
M1191.984375,681.999939 
	C1192.887329,682.825256 1193.790283,683.650574 1194.845825,685.112183 
	C1197.000488,687.826965 1199.002686,689.905579 1201.004761,691.984131 
	C1201.314331,692.110596 1201.571289,692.306152 1201.929443,693.127808 
	C1205.034424,696.127686 1207.985840,698.570557 1210.937256,701.013428 
	C1210.937256,701.013428 1210.964966,701.034973 1210.982422,701.403809 
	C1211.993286,702.835938 1212.986938,703.899109 1213.980469,704.962341 
	C1213.980469,704.962341 1214.006592,704.993286 1214.015991,705.378174 
	C1215.499512,708.806152 1216.359497,712.426086 1218.568970,714.778259 
	C1224.026123,720.587708 1229.983032,725.953430 1236.015991,731.177612 
	C1237.452393,732.421509 1239.974731,732.411316 1241.997681,732.977905 
	C1242.905884,733.803772 1243.814087,734.629578 1244.868652,736.101196 
	C1246.673584,738.160767 1248.332275,739.574646 1249.990967,740.988586 
	C1251.564697,742.472961 1253.138550,743.957336 1254.865479,746.089966 
	C1255.089722,747.229309 1254.975586,747.949097 1255.258545,748.178101 
	C1262.409302,753.965515 1264.591064,764.263367 1273.599487,768.384460 
	C1274.428589,768.763733 1275.095459,769.692139 1275.622681,770.505005 
	C1279.147217,775.940430 1283.460815,780.349060 1290.025513,781.941528 
	C1290.909424,782.451538 1291.793335,782.961487 1292.838379,784.118835 
	C1294.647583,786.183899 1296.295532,787.601685 1297.943604,789.019409 
	C1297.943604,789.019409 1297.973877,789.025757 1297.986694,789.400635 
	C1299.307007,793.673340 1301.628052,796.457520 1305.965454,797.026794 
	C1306.268311,797.158020 1306.520264,797.354431 1306.855225,798.186768 
	C1309.322266,801.154480 1311.655640,803.551514 1313.989014,805.948547 
	C1313.989014,805.948547 1314.019653,805.986328 1314.021118,806.400208 
	C1314.651123,808.396851 1314.890381,810.341797 1315.971313,811.503601 
	C1323.020874,819.080566 1330.022705,826.731140 1337.533691,833.835938 
	C1340.734375,836.863464 1345.123657,838.634399 1348.972656,840.976318 
	C1349.303589,841.448242 1349.634399,841.920105 1350.104492,842.905823 
	C1350.436768,843.691528 1350.694580,843.869568 1351.017212,843.953796 
	C1351.557983,844.150940 1352.098633,844.348083 1352.821289,845.153381 
	C1354.322754,846.848511 1355.642212,847.935486 1356.961792,849.022461 
	C1356.961792,849.022461 1356.995117,849.005188 1356.997070,849.381958 
	C1357.151611,850.397095 1357.104858,851.210632 1357.487671,851.647278 
	C1361.799438,856.564819 1366.307251,861.316406 1370.484253,866.343689 
	C1372.671631,868.976379 1374.309937,872.065430 1376.280273,875.076843 
	C1371.490967,876.188049 1367.561401,877.669006 1363.555176,877.918640 
	C1353.072021,878.572021 1342.551880,878.614990 1332.055054,879.089233 
	C1330.331299,879.167053 1328.650635,880.197571 1326.560791,880.820862 
	C1325.131470,880.830811 1324.091309,880.807617 1322.916992,880.420898 
	C1321.405396,879.709778 1320.029297,879.064514 1318.650757,879.059631 
	C1299.492188,878.991699 1280.333130,878.989807 1261.174561,879.055298 
	C1259.784912,879.059998 1258.397217,879.711182 1256.624756,880.110352 
	C1254.182129,880.363831 1252.123291,880.568848 1249.967285,880.462036 
	C1248.560059,880.364746 1247.250244,880.579407 1245.482910,880.828857 
	C1241.035767,880.846924 1237.046143,880.830261 1232.931396,880.454651 
	C1222.073120,875.946899 1211.567871,879.334290 1200.543091,881.045776 
	C1176.394531,881.347778 1152.715088,881.661072 1128.921387,881.588684 
	C1127.803589,880.811096 1126.802246,880.085388 1125.796021,880.078308 
	C1114.249634,879.996521 1102.702393,879.997559 1091.155762,880.067444 
	C1090.105835,880.073792 1089.059814,880.710144 1087.586304,881.044678 
	C1081.437744,881.038635 1075.714844,881.041809 1069.695312,880.750854 
	C1061.935303,880.649353 1054.471680,880.842041 1046.606689,881.026733 
	C1045.134155,881.024109 1044.063110,881.029419 1042.694336,880.743286 
	C1036.600220,880.646057 1030.803833,880.840393 1024.590576,881.027100 
	C1022.783997,881.009094 1021.394348,880.998657 1019.956360,880.630371 
	C1019.424683,879.631958 1019.025208,878.528137 1018.445068,878.423157 
	C1013.200012,877.474060 1012.869629,873.885803 1012.930664,869.496338 
	C1013.120728,855.835693 1012.906677,842.169617 1013.066711,828.508179 
	C1013.108521,824.932129 1014.570923,821.307739 1014.251465,817.808655 
	C1013.836914,813.268127 1014.219360,809.923462 1019.301392,808.664917 
	C1020.542542,808.357483 1021.649292,807.507568 1022.586426,807.026001 
	C1013.002441,793.839233 1013.002747,793.839233 1013.002380,778.756531 
	C1013.001892,758.261597 1013.034058,737.766602 1012.978577,717.271790 
	C1012.963318,711.636841 1012.523682,705.972656 1016.252441,700.733276 
	C1020.485474,699.390503 1024.566895,698.597229 1028.432983,697.205322 
	C1039.480469,693.228149 1047.942505,685.347168 1055.914917,677.265991 
	C1063.577637,669.498535 1070.264893,660.744324 1077.140137,652.229431 
	C1089.524780,636.891235 1101.729736,621.407959 1114.305420,606.136353 
	C1116.408325,607.509277 1118.215576,608.731079 1120.022827,609.952942 
	C1120.022827,609.952942 1120.009888,609.989380 1120.055664,610.337769 
	C1121.721436,611.787720 1123.341187,612.889404 1124.961060,613.991028 
	C1125.330933,614.753357 1125.700806,615.515686 1126.100220,616.969482 
	C1130.101074,625.955444 1135.256226,632.959656 1144.993652,634.970093 
	C1150.556274,640.454956 1156.119019,645.939819 1161.846924,652.091553 
	C1164.489746,656.724243 1166.751343,660.849426 1169.520874,664.599548 
	C1171.346924,667.072021 1173.952759,668.956970 1176.123169,671.188843 
	C1180.681030,675.875671 1184.519775,681.587708 1191.984375,681.999939 
z"/>
<path fill="#31B3CA" opacity="1.000000" stroke="none" 
	d="
M1129.035767,881.974243 
	C1152.715088,881.661072 1176.394531,881.347778 1200.801270,881.303894 
	C1204.355591,882.387939 1207.182495,883.202515 1209.970093,884.368530 
	C1208.445068,886.889832 1206.974854,889.070435 1205.471558,891.227966 
	C1187.726685,916.694519 1169.933105,942.127136 1152.245972,967.633667 
	C1142.034668,982.359070 1131.993774,997.202637 1121.876221,1011.993042 
	C1119.853760,1013.257385 1117.178467,1014.066467 1115.923462,1015.865906 
	C1110.830200,1023.168884 1106.328979,1030.882812 1101.297119,1038.231201 
	C1098.251343,1042.679077 1094.310425,1046.522461 1091.348755,1051.017578 
	C1087.169800,1057.359985 1083.685547,1064.156738 1079.595581,1070.562012 
	C1076.833984,1074.886597 1074.205322,1079.713379 1070.311279,1082.788330 
	C1065.780029,1086.366577 1063.041504,1090.898926 1060.056763,1095.446167 
	C1053.962280,1104.731079 1045.230225,1107.362427 1034.257080,1102.856201 
	C1028.015625,1100.293091 1021.672241,1098.146240 1015.974121,1094.463135 
	C1014.870300,1093.749634 1013.846802,1092.911743 1012.265869,1091.776367 
	C1008.129578,1086.290039 1004.513611,1081.158691 1001.263794,1076.055176 
	C1002.629639,1076.654663 1003.655090,1077.186157 1004.624939,1077.804810 
	C1010.052185,1081.266846 1011.441772,1080.756592 1011.967712,1074.374146 
	C1012.824158,1063.980591 1013.742310,1053.564697 1013.890198,1043.147583 
	C1014.046875,1032.109131 1013.098694,1021.059448 1013.048157,1010.012756 
	C1012.913574,980.618835 1012.905640,951.223450 1013.047668,921.829651 
	C1013.108643,909.213623 1013.665833,896.600037 1013.996887,883.617432 
	C1013.999573,882.513672 1014.002991,881.777832 1014.434204,881.030823 
	C1016.576294,881.009155 1018.290527,880.998718 1020.004761,880.988220 
	C1021.394348,880.998657 1022.783997,881.009094 1024.895996,881.306213 
	C1031.409790,881.406860 1037.200928,881.220825 1042.992188,881.034790 
	C1044.063110,881.029419 1045.134155,881.024109 1046.912476,881.306030 
	C1055.077148,881.410522 1062.534546,881.227783 1069.991821,881.045044 
	C1075.714844,881.041809 1081.437744,881.038635 1087.893799,881.320251 
	C1102.096436,881.728149 1115.566162,881.851196 1129.035767,881.974243 
z"/>
<path fill="#5EC3CF" opacity="1.000000" stroke="none" 
	d="
M1122.107300,1012.259033 
	C1131.993774,997.202637 1142.034668,982.359070 1152.245972,967.633667 
	C1169.933105,942.127136 1187.726685,916.694519 1205.471558,891.227966 
	C1206.974854,889.070435 1208.445068,886.889832 1210.291138,884.192261 
	C1213.002319,882.777222 1215.303833,881.329529 1217.713745,881.118774 
	C1222.797974,880.674011 1227.938843,880.876526 1233.056396,880.813599 
	C1237.046143,880.830261 1241.035767,880.846924 1245.892944,880.896667 
	C1247.861816,880.877747 1248.963135,880.825806 1250.064575,880.773926 
	C1252.123291,880.568848 1254.182129,880.363831 1257.073242,880.124878 
	C1261.194824,880.384521 1264.483398,880.926514 1267.772827,880.930664 
	C1286.198975,880.953674 1304.625122,880.846924 1323.051270,880.784424 
	C1324.091309,880.807617 1325.131470,880.830811 1327.029907,880.891846 
	C1342.639038,881.275146 1357.389893,881.620544 1372.140625,881.966003 
	C1374.486084,889.205872 1370.296631,893.533569 1365.596680,898.149902 
	C1355.436401,908.129578 1345.827759,918.668762 1335.749268,928.734680 
	C1325.066406,939.404236 1314.084106,949.773438 1303.263184,960.305359 
	C1291.485229,971.768799 1279.673584,983.199097 1268.012329,994.780701 
	C1261.908936,1000.842468 1256.286377,1007.393127 1250.114014,1013.379883 
	C1236.900391,1026.196289 1223.597534,1038.927124 1210.074463,1051.415039 
	C1203.534546,1057.454346 1195.321533,1058.719360 1183.767700,1051.304932 
	C1171.559937,1043.471069 1159.369263,1035.609741 1147.112549,1027.852905 
	C1138.907349,1022.660095 1130.599976,1017.628601 1122.107300,1012.259033 
z"/>
<path fill="#039FBC" opacity="1.000000" stroke="none" 
	d="
M794.002197,880.973999 
	C748.647400,880.983459 703.292603,880.992859 657.425842,880.710693 
	C656.509583,880.109924 656.105225,879.800659 655.700867,879.491455 
	C655.470337,880.000732 655.239807,880.510071 655.009216,881.019287 
	C649.458618,880.855347 643.908081,880.691406 638.357483,880.527405 
	C638.031250,879.798096 637.705017,879.068848 637.378723,878.339539 
	C673.376709,842.294800 709.374695,806.250000 745.815369,770.357788 
	C747.856445,772.034973 749.454895,773.559692 750.022766,774.101379 
	C753.304626,773.000488 756.524536,771.159973 757.188416,771.834534 
	C759.562561,774.247192 762.128662,777.333008 762.665466,780.496155 
	C763.542908,785.666748 766.628967,785.954773 770.489990,786.001892 
	C777.329834,786.085449 778.309937,787.246948 777.694153,793.810242 
	C779.790649,795.590576 781.646912,797.131287 783.463379,798.717529 
	C786.408569,801.289490 789.421448,801.975342 792.942627,799.656616 
	C793.962341,798.985107 795.791321,798.581177 796.808960,799.037170 
	C800.792664,800.822327 804.816650,802.678528 808.425049,805.104309 
	C814.689636,809.315796 820.911316,813.669861 826.655945,818.547241 
	C830.264404,821.610901 835.569092,824.230957 834.652283,830.256592 
	C834.136902,833.643677 835.437622,835.308716 838.075256,836.512085 
	C841.538452,838.092102 845.228088,839.246094 848.523315,841.108582 
	C854.150330,844.288940 856.986267,842.948059 856.935791,836.367126 
	C856.888794,830.242126 856.335327,824.120972 856.368774,818.069946 
	C857.473755,819.358521 858.578674,820.487000 858.898743,821.805969 
	C861.843445,833.941650 861.722168,847.015137 870.476990,857.518982 
	C871.704163,856.062805 872.882263,854.017273 874.629761,852.768799 
	C876.472961,851.451904 878.859619,850.895752 880.968018,850.350586 
	C880.625427,851.270691 880.427368,851.940552 880.006287,852.410583 
	C873.749084,859.396118 867.406067,866.306030 861.235168,873.366516 
	C860.142578,874.616577 859.738037,876.468018 858.698303,878.203491 
	C856.254761,879.234985 854.128723,880.104797 852.002747,880.974609 
	C834.980042,880.973938 817.957275,880.973206 800.206055,880.718872 
	C797.652405,880.634888 795.827332,880.804443 794.002197,880.973999 
z"/>
<path fill="#24B2C8" opacity="1.000000" stroke="none" 
	d="
M838.996094,676.970337 
	C846.857117,669.360657 854.801758,661.834717 862.543396,654.105469 
	C866.350342,650.304688 869.699463,646.049866 873.399536,642.136475 
	C881.049683,634.045349 888.727661,625.977844 896.538269,618.042358 
	C899.487488,615.046021 902.967224,612.576843 905.976074,609.633240 
	C915.077576,600.729187 923.903198,591.535828 933.189026,582.831360 
	C936.427063,579.796082 941.390686,578.496643 944.338440,575.279480 
	C949.822754,569.293762 954.072876,562.188843 959.448364,556.088806 
	C966.252930,548.367126 973.655090,541.171021 980.823425,533.771301 
	C986.458069,527.954712 992.149475,522.193054 997.777344,516.369995 
	C1002.247925,511.744476 1006.529419,506.922699 1011.218384,502.533783 
	C1012.078674,501.728485 1015.087830,501.905396 1016.080627,502.785095 
	C1020.169434,506.408203 1023.863403,510.476929 1027.502197,514.727417 
	C1024.785767,516.701904 1022.438354,517.462402 1019.693237,515.139771 
	C1018.414001,514.057556 1016.143860,513.190674 1014.705872,513.593567 
	C1013.775330,513.854248 1013.092896,516.582886 1013.064697,518.218811 
	C1012.911194,527.134766 1012.995911,536.054810 1012.997253,544.973450 
	C1012.999146,557.470520 1013.000183,569.967529 1013.000977,582.464600 
	C1013.002502,604.939453 1012.999634,627.414246 1013.007385,649.889099 
	C1013.009644,656.300171 1011.942566,662.956177 1013.303589,669.068359 
	C1015.695679,679.810486 1014.802856,690.363220 1013.891846,701.248291 
	C1013.551025,701.730286 1013.282410,701.921265 1012.632568,702.025757 
	C1011.868652,702.004700 1011.431885,701.994263 1010.996704,701.545959 
	C1011.004639,694.194214 1011.259216,687.269958 1010.971069,680.368408 
	C1010.092896,659.336853 1009.005310,638.314026 1008.000549,617.287781 
	C1007.952881,616.290710 1008.291504,615.007080 1007.795166,614.357117 
	C1006.854919,613.125916 1005.562378,611.974670 1004.165405,611.365417 
	C1003.520752,611.084229 1001.937805,611.901550 1001.378540,612.661194 
	C999.052612,615.820557 997.299744,619.471558 994.648804,622.296753 
	C992.944824,624.112732 990.122925,625.602966 987.662476,625.850281 
	C980.250000,626.595459 972.765442,626.599854 965.319153,627.058105 
	C964.218750,627.125854 962.377319,627.928772 962.232178,628.660217 
	C961.312073,633.296875 957.940369,633.144653 954.523621,632.988464 
	C949.310303,632.750244 944.098694,632.618835 940.020386,636.638855 
	C935.332764,641.259583 930.854858,646.095276 926.112244,650.657166 
	C924.409485,652.295044 922.334534,654.235962 920.195068,654.579651 
	C916.302185,655.205017 912.406494,654.882202 912.482117,660.509644 
	C912.489014,661.023682 910.920715,661.489807 910.178589,662.094360 
	C905.941833,665.546326 900.824646,668.013245 902.772095,675.502441 
	C904.349487,681.568481 900.277710,686.417786 894.288269,688.180298 
	C893.138550,688.518677 891.654724,689.384399 891.274414,690.372253 
	C889.970337,693.760010 888.815552,697.255615 888.103638,700.810242 
	C886.729248,707.672913 885.384216,714.309631 876.211060,714.174988 
	C875.641907,714.166748 875.032715,714.729126 874.494934,715.102051 
	C871.714844,717.029602 869.026978,719.101440 866.166016,720.898560 
	C861.600281,723.766418 861.197571,726.574036 864.890503,730.371094 
	C859.448364,736.514587 855.000366,743.005310 853.731445,750.838257 
	C852.551208,758.123962 852.500000,765.592468 851.588684,772.975159 
	C847.489502,768.326172 843.720764,763.708313 840.027527,759.030762 
	C837.051880,755.261963 835.721558,751.085205 835.902161,746.127991 
	C836.185547,738.349609 837.045227,730.284485 835.428101,722.824768 
	C833.527893,714.058716 834.967773,705.780396 835.812744,697.339539 
	C836.496216,690.511963 837.907593,683.757324 838.996094,676.970337 
z"/>
<path fill="#15B7D1" opacity="1.000000" stroke="none" 
	d="
M1014.018066,701.033325 
	C1014.802856,690.363220 1015.695679,679.810486 1013.303589,669.068359 
	C1011.942566,662.956177 1013.009644,656.300171 1013.007385,649.889099 
	C1012.999634,627.414246 1013.002502,604.939453 1013.000977,582.464600 
	C1013.000183,569.967529 1012.999146,557.470520 1012.997253,544.973450 
	C1012.995911,536.054810 1012.911194,527.134766 1013.064697,518.218811 
	C1013.092896,516.582886 1013.775330,513.854248 1014.705872,513.593567 
	C1016.143860,513.190674 1018.414001,514.057556 1019.693237,515.139771 
	C1022.438354,517.462402 1024.785767,516.701904 1027.662354,515.022766 
	C1030.913940,517.788940 1033.805054,520.605469 1036.849854,524.100830 
	C1038.363037,531.509094 1043.456421,535.782410 1047.671143,540.565430 
	C1048.361450,541.349060 1050.553467,540.809692 1052.051392,540.881775 
	C1055.567749,543.651550 1059.282349,546.208923 1062.541992,549.253540 
	C1065.515869,552.031189 1067.996704,555.336792 1070.850098,559.096375 
	C1071.381104,561.198242 1071.469238,562.785217 1072.191040,563.993652 
	C1073.812744,566.709045 1075.709106,569.265747 1077.581421,571.822815 
	C1078.153564,572.604004 1079.046265,573.141968 1079.732910,573.848816 
	C1086.817017,581.139893 1093.950928,588.384521 1100.928223,595.776672 
	C1103.123291,598.102173 1105.311890,598.477295 1107.995117,597.003418 
	C1109.891235,598.817200 1111.787354,600.631042 1113.836914,603.105713 
	C1113.996948,604.506104 1114.003418,605.245728 1114.009766,605.985291 
	C1101.729736,621.407959 1089.524780,636.891235 1077.140137,652.229431 
	C1070.264893,660.744324 1063.577637,669.498535 1055.914917,677.265991 
	C1047.942505,685.347168 1039.480469,693.228149 1028.432983,697.205322 
	C1024.566895,698.597229 1020.485474,699.390503 1015.921509,700.734131 
	C1014.899841,701.018494 1014.458923,701.025879 1014.018066,701.033325 
z"/>
<path fill="#1196AF" opacity="1.000000" stroke="none" 
	d="
M1000.897705,1076.027466 
	C1004.513611,1081.158691 1008.129578,1086.290039 1011.937073,1091.707275 
	C1010.839661,1091.971436 1009.274292,1092.423218 1008.303284,1091.856567 
	C994.181519,1083.615234 980.172546,1075.181030 966.068726,1066.908691 
	C952.434937,1058.912231 938.722351,1051.050293 925.045288,1043.127686 
	C914.450195,1036.990356 903.856506,1030.850586 893.145996,1024.054199 
	C892.371338,1020.633972 891.712769,1017.871582 890.903564,1014.477051 
	C892.960083,1010.238159 895.759460,1005.184875 897.885864,999.862671 
	C899.651367,995.443726 900.285400,990.574402 902.032776,986.146179 
	C904.369751,980.223694 902.238953,975.481750 899.091003,970.773376 
	C896.104797,966.306885 892.531494,962.106140 890.316528,957.283203 
	C887.611633,951.393616 884.899048,945.092529 884.267151,938.762024 
	C883.287231,928.943665 880.732056,920.112671 875.468933,911.762207 
	C872.384949,906.869202 870.452820,901.250183 868.298401,896.124023 
	C875.001587,904.737366 881.481445,913.130432 887.800659,921.642822 
	C899.647400,937.601074 911.399780,953.629150 923.193787,969.626526 
	C935.410156,986.196777 947.679932,1002.727966 959.832275,1019.344971 
	C970.932922,1034.523804 981.907776,1049.794678 992.993286,1065.371338 
	C995.016235,1068.180664 996.983948,1070.643555 998.989136,1073.414429 
	C999.650330,1074.490723 1000.274048,1075.259155 1000.897705,1076.027466 
M897.163818,1006.491028 
	C897.578796,1006.782776 897.993774,1007.074585 898.408813,1007.366333 
	C898.519836,1006.934387 898.630798,1006.502441 898.741699,1006.070374 
	C898.256836,1006.018616 897.771973,1005.966797 897.163818,1006.491028 
z"/>
<path fill="#1C9DB4" opacity="1.000000" stroke="none" 
	d="
M868.002563,895.957703 
	C870.452820,901.250183 872.384949,906.869202 875.468933,911.762207 
	C880.732056,920.112671 883.287231,928.943665 884.267151,938.762024 
	C884.899048,945.092529 887.611633,951.393616 890.316528,957.283203 
	C892.531494,962.106140 896.104797,966.306885 899.091003,970.773376 
	C902.238953,975.481750 904.369751,980.223694 902.032776,986.146179 
	C900.285400,990.574402 899.651367,995.443726 897.885864,999.862671 
	C895.759460,1005.184875 892.960083,1010.238159 890.903564,1014.477051 
	C891.712769,1017.871582 892.371338,1020.633972 892.960205,1023.757507 
	C885.131104,1020.122192 877.193909,1016.431213 869.659180,1012.048218 
	C861.152588,1007.099915 853.036072,1001.484558 844.690979,996.253235 
	C841.668701,994.358643 838.311768,992.960449 835.449890,990.867493 
	C834.439575,990.128601 833.643860,987.655090 834.111389,986.548828 
	C843.897522,963.391113 846.624207,938.697632 850.149353,914.172546 
	C850.265686,913.363281 850.648926,912.592407 851.379272,911.395325 
	C853.622864,911.245667 855.494568,911.227051 857.146301,911.820557 
	C860.601135,913.062012 864.126709,911.136047 863.748474,907.533813 
	C863.090393,901.266663 861.827332,895.064819 860.972900,888.814392 
	C860.853271,887.939758 861.611511,886.945129 862.014648,886.350586 
	C864.044800,889.782593 866.023682,892.870178 868.002563,895.957703 
z"/>
<path fill="#07AAC6" opacity="1.000000" stroke="none" 
	d="
M856.004883,817.998169 
	C856.335327,824.120972 856.888794,830.242126 856.935791,836.367126 
	C856.986267,842.948059 854.150330,844.288940 848.523315,841.108582 
	C845.228088,839.246094 841.538452,838.092102 838.075256,836.512085 
	C835.437622,835.308716 834.136902,833.643677 834.652283,830.256592 
	C835.569092,824.230957 830.264404,821.610901 826.655945,818.547241 
	C820.911316,813.669861 814.689636,809.315796 808.425049,805.104309 
	C804.816650,802.678528 800.792664,800.822327 796.808960,799.037170 
	C795.791321,798.581177 793.962341,798.985107 792.942627,799.656616 
	C789.421448,801.975342 786.408569,801.289490 783.463379,798.717529 
	C781.646912,797.131287 779.790649,795.590576 777.694153,793.810242 
	C778.309937,787.246948 777.329834,786.085449 770.489990,786.001892 
	C766.628967,785.954773 763.542908,785.666748 762.665466,780.496155 
	C762.128662,777.333008 759.562561,774.247192 757.188416,771.834534 
	C756.524536,771.159973 753.304626,773.000488 750.022766,774.101379 
	C749.454895,773.559692 747.856445,772.034973 746.109802,770.194641 
	C751.087097,764.353271 756.212708,758.827515 762.016357,753.192017 
	C765.777283,754.575195 768.642517,754.063049 770.840515,751.582886 
	C774.601318,747.339355 778.399780,743.078491 781.642334,738.446838 
	C783.344299,736.015808 783.900330,732.782532 784.973877,729.911621 
	C785.795105,729.016846 786.616333,728.122070 787.869507,727.398315 
	C789.756531,728.893677 791.785156,729.943970 792.570435,731.588135 
	C796.616882,740.060608 800.988647,748.216675 808.013184,754.732483 
	C809.481873,756.094788 810.652710,758.466919 810.791443,760.455322 
	C811.400818,769.191101 816.220032,775.378296 821.777588,781.590942 
	C824.429504,784.555481 825.320251,789.096680 827.003540,792.926086 
	C827.910156,794.988770 828.268921,797.692566 829.812927,798.995483 
	C833.576721,802.171570 837.975281,804.580994 841.951538,807.524292 
	C845.370239,810.054993 848.499939,812.974487 851.894958,815.540100 
	C852.627869,816.093933 853.949524,815.868774 855.239319,816.174683 
	C855.654053,816.897278 855.829468,817.447693 856.004883,817.998169 
z"/>
<path fill="#11AEC7" opacity="1.000000" stroke="none" 
	d="
M855.000000,816.002441 
	C853.949524,815.868774 852.627869,816.093933 851.894958,815.540100 
	C848.499939,812.974487 845.370239,810.054993 841.951538,807.524292 
	C837.975281,804.580994 833.576721,802.171570 829.812927,798.995483 
	C828.268921,797.692566 827.910156,794.988770 827.003540,792.926086 
	C825.320251,789.096680 824.429504,784.555481 821.777588,781.590942 
	C816.220032,775.378296 811.400818,769.191101 810.791443,760.455322 
	C810.652710,758.466919 809.481873,756.094788 808.013184,754.732483 
	C800.988647,748.216675 796.616882,740.060608 792.570435,731.588135 
	C791.785156,729.943970 789.756531,728.893677 788.143066,727.259338 
	C795.926147,719.173523 803.887207,711.417603 811.803894,703.616760 
	C820.691528,694.859192 829.539001,686.060791 838.700073,677.125244 
	C837.907593,683.757324 836.496216,690.511963 835.812744,697.339539 
	C834.967773,705.780396 833.527893,714.058716 835.428101,722.824768 
	C837.045227,730.284485 836.185547,738.349609 835.902161,746.127991 
	C835.721558,751.085205 837.051880,755.261963 840.027527,759.030762 
	C843.720764,763.708313 847.489502,768.326172 851.604858,773.443848 
	C852.989380,787.946106 853.994690,801.974304 855.000000,816.002441 
z"/>
<path fill="#24B2C8" opacity="1.000000" stroke="none" 
	d="
M861.963379,886.006104 
	C861.611511,886.945129 860.853271,887.939758 860.972900,888.814392 
	C861.827332,895.064819 863.090393,901.266663 863.748474,907.533813 
	C864.126709,911.136047 860.601135,913.062012 857.146301,911.820557 
	C855.494568,911.227051 853.622864,911.245667 851.435791,910.988464 
	C851.858887,904.302246 852.921143,897.631714 853.434875,890.919250 
	C853.669617,887.852234 852.823303,884.702393 852.235046,881.282349 
	C854.128723,880.104797 856.254761,879.234985 859.027100,878.376648 
	C861.187195,878.928528 862.686279,879.880066 864.217529,879.934875 
	C869.622559,880.128357 875.038635,880.016785 880.450500,880.017090 
	C923.073730,880.019226 965.696960,880.007385 1008.320129,880.065247 
	C1010.216003,880.067810 1012.110962,880.701965 1014.006348,881.041992 
	C1014.002991,881.777832 1013.999573,882.513672 1013.583435,883.620239 
	C1009.403870,883.990723 1005.620178,884.217773 1001.873962,883.939880 
	C995.361572,883.456787 988.882446,882.244629 982.371216,882.086609 
	C969.802612,881.781433 957.221313,881.997498 944.645325,881.997498 
	C923.876343,881.997498 903.107300,881.987732 882.338318,882.016479 
	C880.697388,882.018738 879.050110,882.237183 877.417419,882.445801 
	C874.223206,882.854004 871.002319,883.161987 867.860352,883.830627 
	C865.832214,884.262329 863.924927,885.261353 861.963379,886.006104 
M857.482178,882.587891 
	C857.482178,882.587891 857.419617,882.480408 857.482178,882.587891 
z"/>
<path fill="#24B2C8" opacity="1.000000" stroke="none" 
	d="
M1372.582031,881.968750 
	C1357.389893,881.620544 1342.639038,881.275146 1327.419189,880.858765 
	C1328.650635,880.197571 1330.331299,879.167053 1332.055054,879.089233 
	C1342.551880,878.614990 1353.072021,878.572021 1363.555176,877.918640 
	C1367.561401,877.669006 1371.490967,876.188049 1376.280273,875.076843 
	C1374.309937,872.065430 1372.671631,868.976379 1370.484253,866.343689 
	C1366.307251,861.316406 1361.799438,856.564819 1357.487671,851.647278 
	C1357.104858,851.210632 1357.151611,850.397095 1356.988159,849.398499 
	C1365.632202,858.100708 1374.286987,867.163086 1382.642334,876.595886 
	C1381.729736,877.303955 1381.116577,877.641541 1380.503296,877.979126 
	C1380.802368,878.260742 1381.101562,878.542358 1381.400635,878.823975 
	C1381.967285,878.205750 1382.533936,877.587463 1383.100586,876.969116 
	C1383.637817,877.760742 1384.769287,879.084839 1384.615234,879.256714 
	C1383.692627,880.286377 1382.554688,881.615540 1381.338135,881.789307 
	C1378.613647,882.178772 1375.800537,881.949036 1372.582031,881.968750 
z"/>
<path fill="#24B2C8" opacity="1.000000" stroke="none" 
	d="
M1107.850098,596.704041 
	C1105.311890,598.477295 1103.123291,598.102173 1100.928223,595.776672 
	C1093.950928,588.384521 1086.817017,581.139893 1079.732910,573.848816 
	C1079.046265,573.141968 1078.153564,572.604004 1077.581421,571.822815 
	C1075.709106,569.265747 1073.812744,566.709045 1072.191040,563.993652 
	C1071.469238,562.785217 1071.381104,561.198242 1071.005127,559.390686 
	C1078.166016,566.268799 1085.336060,573.530457 1092.485107,580.812866 
	C1097.572998,585.995728 1102.632690,591.206421 1107.850098,596.704041 
z"/>
<path fill="#24B2C8" opacity="1.000000" stroke="none" 
	d="
M1348.827148,840.676758 
	C1345.123657,838.634399 1340.734375,836.863464 1337.533691,833.835938 
	C1330.022705,826.731140 1323.020874,819.080566 1315.971313,811.503601 
	C1314.890381,810.341797 1314.651123,808.396851 1314.035889,806.419556 
	C1323.165649,815.233398 1332.261475,824.462402 1341.412964,833.635864 
	C1343.744995,835.973450 1346.253906,838.134766 1348.827148,840.676758 
z"/>
<path fill="#24B2C8" opacity="1.000000" stroke="none" 
	d="
M1191.841187,681.700684 
	C1184.519775,681.587708 1180.681030,675.875671 1176.123169,671.188843 
	C1173.952759,668.956970 1171.346924,667.072021 1169.520874,664.599548 
	C1166.751343,660.849426 1164.489746,656.724243 1162.006104,652.384033 
	C1171.899292,661.807007 1181.798706,671.604248 1191.841187,681.700684 
z"/>
<path fill="#24B2C8" opacity="1.000000" stroke="none" 
	d="
M1289.963257,781.613159 
	C1283.460815,780.349060 1279.147217,775.940430 1275.622681,770.505005 
	C1275.095459,769.692139 1274.428589,768.763733 1273.599487,768.384460 
	C1264.591064,764.263367 1262.409302,753.965515 1255.258545,748.178101 
	C1254.975586,747.949097 1255.089722,747.229309 1255.022461,746.375610 
	C1260.225952,751.334961 1265.399170,756.683289 1270.632812,761.971863 
	C1277.029175,768.435608 1283.475952,774.849426 1289.963257,781.613159 
z"/>
<path fill="#24B2C8" opacity="1.000000" stroke="none" 
	d="
M1241.850098,732.682007 
	C1239.974731,732.411316 1237.452393,732.421509 1236.015991,731.177612 
	C1229.983032,725.953430 1224.026123,720.587708 1218.568970,714.778259 
	C1216.359497,712.426086 1215.499512,708.806152 1214.031250,705.391418 
	C1217.915649,708.729004 1221.851440,712.380676 1225.659302,716.161194 
	C1231.056396,721.519714 1236.359375,726.973145 1241.850098,732.682007 
z"/>
<path fill="#039FBC" opacity="1.000000" stroke="none" 
	d="
M784.680237,730.075073 
	C783.900330,732.782532 783.344299,736.015808 781.642334,738.446838 
	C778.399780,743.078491 774.601318,747.339355 770.840515,751.582886 
	C768.642517,754.063049 765.777283,754.575195 762.311157,753.031372 
	C769.414185,745.399902 776.900391,737.819214 784.680237,730.075073 
z"/>
<path fill="#24B2C8" opacity="1.000000" stroke="none" 
	d="
M1144.846191,634.674927 
	C1135.256226,632.959656 1130.101074,625.955444 1126.134521,617.301270 
	C1130.378296,620.739197 1134.660278,624.490112 1138.837524,628.354370 
	C1140.891479,630.254456 1142.751221,632.364624 1144.846191,634.674927 
z"/>
<path fill="#24B2C8" opacity="1.000000" stroke="none" 
	d="
M1051.997559,540.549011 
	C1050.553467,540.809692 1048.361450,541.349060 1047.671143,540.565430 
	C1043.456421,535.782410 1038.363037,531.509094 1037.006592,524.394165 
	C1041.987671,529.411194 1046.965698,534.813721 1051.997559,540.549011 
z"/>
<path fill="#24B2C8" opacity="1.000000" stroke="none" 
	d="
M1210.806152,700.710083 
	C1207.985840,698.570557 1205.034424,696.127686 1202.050781,693.339966 
	C1204.904175,695.465637 1207.789551,697.936218 1210.806152,700.710083 
z"/>
<path fill="#24B2C8" opacity="1.000000" stroke="none" 
	d="
M1305.827881,796.724731 
	C1301.628052,796.457520 1299.307007,793.673340 1297.990234,789.415649 
	C1300.550781,791.511475 1303.120605,793.967102 1305.827881,796.724731 
z"/>
<path fill="#24B2C8" opacity="1.000000" stroke="none" 
	d="
M1313.953613,805.611450 
	C1311.655640,803.551514 1309.322266,801.154480 1306.975342,798.396606 
	C1309.280640,800.448608 1311.599365,802.861511 1313.953613,805.611450 
z"/>
<path fill="#24B2C8" opacity="1.000000" stroke="none" 
	d="
M1200.965942,691.644897 
	C1199.002686,689.905579 1197.000488,687.826965 1194.988281,685.386230 
	C1196.961060,687.117981 1198.944092,689.211853 1200.965942,691.644897 
z"/>
<path fill="#24B2C8" opacity="1.000000" stroke="none" 
	d="
M1114.305420,606.136353 
	C1114.003418,605.245728 1113.996948,604.506104 1113.987915,603.397217 
	C1115.968018,605.112732 1117.950684,607.197510 1119.978027,609.617615 
	C1118.215576,608.731079 1116.408325,607.509277 1114.305420,606.136353 
z"/>
<path fill="#24B2C8" opacity="1.000000" stroke="none" 
	d="
M1297.844238,788.739502 
	C1296.295532,787.601685 1294.647583,786.183899 1292.990967,784.397644 
	C1294.172241,784.922363 1295.362061,785.815674 1296.867432,786.779358 
	C1297.182861,786.849731 1297.015503,786.929382 1297.078735,786.860352 
	C1297.343018,787.347351 1297.544067,787.903442 1297.844238,788.739502 
z"/>
<path fill="#24B2C8" opacity="1.000000" stroke="none" 
	d="
M1249.849976,740.697937 
	C1248.332275,739.574646 1246.673584,738.160767 1245.013062,736.375366 
	C1246.577148,737.471680 1248.143066,738.939514 1249.849976,740.697937 
z"/>
<path fill="#24B2C8" opacity="1.000000" stroke="none" 
	d="
M794.251953,881.244568 
	C795.827332,880.804443 797.652405,880.634888 799.737183,880.718445 
	C798.165161,881.152771 796.333435,881.333923 794.251953,881.244568 
z"/>
<path fill="#24B2C8" opacity="1.000000" stroke="none" 
	d="
M1124.821533,613.694092 
	C1123.341187,612.889404 1121.721436,611.787720 1120.074219,610.331665 
	C1121.591797,611.117188 1123.136841,612.257141 1124.821533,613.694092 
z"/>
<path fill="#24B2C8" opacity="1.000000" stroke="none" 
	d="
M1356.834229,848.730408 
	C1355.642212,847.935486 1354.322754,846.848511 1352.994873,845.389526 
	C1354.226562,846.157715 1355.466553,847.298035 1356.834229,848.730408 
z"/>
<path fill="#24B2C8" opacity="1.000000" stroke="none" 
	d="
M1213.953369,704.638672 
	C1212.986938,703.899109 1211.993286,702.835938 1210.993164,701.417603 
	C1211.966431,702.146667 1212.946289,703.230835 1213.953369,704.638672 
z"/>
<path fill="#1C9DB4" opacity="1.000000" stroke="none" 
	d="
M655.341064,881.022766 
	C655.239807,880.510071 655.470337,880.000732 655.700867,879.491455 
	C656.105225,879.800659 656.509583,880.109924 656.957214,880.712036 
	C656.558044,881.011963 656.115479,881.019104 655.341064,881.022766 
z"/>
<path fill="#24B2C8" opacity="1.000000" stroke="none" 
	d="
M1350.905518,843.746948 
	C1350.694580,843.869568 1350.436768,843.691528 1350.146240,843.201660 
	C1350.350830,843.096985 1350.599243,843.282471 1350.905518,843.746948 
z"/>
<path fill="#F2F2F2" opacity="1.000000" stroke="none" 
	d="
M1061.381592,1321.795654 
	C1060.293457,1320.485229 1059.130737,1319.187866 1059.121948,1317.882690 
	C1058.989014,1298.088379 1059.049927,1278.292969 1058.944214,1258.498413 
	C1058.928589,1255.557983 1059.748535,1254.307495 1062.894653,1254.388428 
	C1074.031982,1254.674927 1085.181152,1254.564453 1096.313965,1254.951172 
	C1113.795044,1255.558472 1126.613281,1265.138550 1129.428833,1280.520996 
	C1133.168457,1300.951782 1123.950562,1319.557373 1099.249512,1321.057983 
	C1086.811646,1321.813721 1074.314209,1321.587280 1061.381592,1321.795654 
z"/>
<path fill="#F2F2F2" opacity="1.000000" stroke="none" 
	d="
M1239.000000,1349.945312 
	C1228.193726,1349.941772 1217.887573,1349.941772 1206.561890,1349.941772 
	C1217.998657,1321.737061 1229.182495,1294.156372 1240.445068,1266.381592 
	C1251.311035,1294.183960 1262.063110,1321.694946 1273.105469,1349.948853 
	C1261.574951,1349.948853 1250.537476,1349.948853 1239.000000,1349.945312 
z"/>
<path fill="#039FBC" opacity="1.000000" stroke="none" 
	d="
M882.193481,1260.351318 
	C879.513794,1264.698853 877.113281,1268.787842 874.645325,1272.835693 
	C870.188843,1280.145020 865.668579,1287.415405 861.217834,1294.728149 
	C855.277893,1304.488037 849.583435,1314.404663 843.398926,1324.006104 
	C838.275146,1331.960938 833.723450,1339.772095 833.868469,1349.824341 
	C834.060120,1363.109253 833.390686,1376.409302 832.977661,1389.699341 
	C832.719482,1398.007935 830.534668,1400.004517 822.221863,1400.004883 
	C818.888916,1400.005127 815.555969,1400.006836 812.223022,1400.004517 
	C805.012024,1399.999390 804.038696,1399.062378 804.008850,1391.573364 
	C803.958374,1378.908203 803.397522,1366.205811 804.184021,1353.589722 
	C804.780457,1344.023193 800.593994,1336.527832 796.242615,1328.962402 
	C790.262146,1318.564087 783.605835,1308.554932 777.604309,1298.168091 
	C774.524292,1292.837402 772.284424,1287.025513 769.560303,1281.482422 
	C768.834839,1280.006226 767.749512,1278.701050 766.777527,1277.354736 
	C766.391296,1276.819702 765.455200,1276.380493 765.462341,1275.908203 
	C765.567139,1268.988159 758.600647,1266.830200 755.951721,1261.699097 
	C753.224670,1256.416870 749.545044,1251.630981 746.373657,1246.570435 
	C745.713135,1245.516357 745.453552,1244.211304 744.734314,1242.286377 
	C746.602539,1242.286377 748.592468,1241.821777 748.917847,1242.361328 
	C751.130249,1246.029053 753.250183,1243.326904 755.816772,1243.030640 
	C763.172729,1242.181763 770.661987,1242.249756 778.082214,1242.484375 
	C779.066833,1242.515625 780.672607,1245.564209 780.763000,1247.280151 
	C781.151123,1254.651367 786.332458,1259.308228 789.927856,1264.922852 
	C795.173584,1273.114624 800.124695,1281.498169 805.079163,1289.872192 
	C808.540833,1295.723267 811.518616,1301.878662 815.242126,1307.550415 
	C817.850952,1311.524292 820.133118,1310.719604 823.717590,1307.763794 
	C829.620544,1302.896118 829.274231,1295.262695 832.963501,1289.502686 
	C837.499146,1282.421143 842.024536,1275.327026 846.312927,1268.095093 
	C849.754883,1262.290771 853.339905,1256.485229 855.953430,1250.296753 
	C859.328857,1242.304321 859.139038,1241.995850 867.716614,1241.994507 
	C871.216187,1241.994019 874.756287,1241.656250 878.207458,1242.065674 
	C886.923523,1243.099731 888.672363,1247.814331 885.306030,1256.013184 
	C884.692688,1257.506958 883.413818,1258.727661 882.193481,1260.351318 
z"/>
<path fill="#07AAC6" opacity="1.000000" stroke="none" 
	d="
M1014.434204,881.030823 
	C1012.110962,880.701965 1010.216003,880.067810 1008.320129,880.065247 
	C965.696960,880.007385 923.073730,880.019226 880.450500,880.017090 
	C875.038635,880.016785 869.622559,880.128357 864.217529,879.934875 
	C862.686279,879.880066 861.187195,878.928528 859.344604,878.214966 
	C859.738037,876.468018 860.142578,874.616577 861.235168,873.366516 
	C867.406067,866.306030 873.749084,859.396118 880.006287,852.410583 
	C880.427368,851.940552 880.625427,851.270691 881.265991,850.196045 
	C887.679321,842.907288 893.839417,836.190491 899.808594,829.308167 
	C909.031982,818.673889 918.035767,807.848633 927.302368,797.252808 
	C934.167786,789.402588 941.372803,781.850281 948.302795,774.055237 
	C960.512573,760.321167 972.549133,746.432678 984.808044,732.742981 
	C994.070923,722.399048 1003.567322,712.264221 1012.959778,702.036255 
	C1013.282410,701.921265 1013.551025,701.730286 1013.891846,701.248291 
	C1014.458923,701.025879 1014.899841,701.018494 1015.671570,701.010193 
	C1012.523682,705.972656 1012.963318,711.636841 1012.978577,717.271790 
	C1013.034058,737.766602 1013.001892,758.261597 1013.002380,778.756531 
	C1013.002747,793.839233 1013.002441,793.839233 1022.586426,807.026001 
	C1021.649292,807.507568 1020.542542,808.357483 1019.301392,808.664917 
	C1014.219360,809.923462 1013.836914,813.268127 1014.251465,817.808655 
	C1014.570923,821.307739 1013.108521,824.932129 1013.066711,828.508179 
	C1012.906677,842.169617 1013.120728,855.835693 1012.930664,869.496338 
	C1012.869629,873.885803 1013.200012,877.474060 1018.445068,878.423157 
	C1019.025208,878.528137 1019.424683,879.631958 1019.956360,880.630371 
	C1018.290527,880.998718 1016.576294,881.009155 1014.434204,881.030823 
z"/>
<path fill="#24B2C8" opacity="1.000000" stroke="none" 
	d="
M1322.916992,880.420898 
	C1304.625122,880.846924 1286.198975,880.953674 1267.772827,880.930664 
	C1264.483398,880.926514 1261.194824,880.384521 1257.457275,880.076416 
	C1258.397217,879.711182 1259.784912,879.059998 1261.174561,879.055298 
	C1280.333130,878.989807 1299.492188,878.991699 1318.650757,879.059631 
	C1320.029297,879.064514 1321.405396,879.709778 1322.916992,880.420898 
z"/>
<path fill="#24B2C8" opacity="1.000000" stroke="none" 
	d="
M1232.931396,880.454712 
	C1227.938843,880.876526 1222.797974,880.674011 1217.713745,881.118774 
	C1215.303833,881.329529 1213.002319,882.777222 1210.330566,883.840881 
	C1207.182495,883.202515 1204.355591,882.387939 1201.270508,881.315186 
	C1211.567871,879.334290 1222.073120,875.946899 1232.931396,880.454712 
z"/>
<path fill="#24B2C8" opacity="1.000000" stroke="none" 
	d="
M1128.921387,881.588623 
	C1115.566162,881.851196 1102.096436,881.728149 1088.319336,881.329529 
	C1089.059814,880.710144 1090.105835,880.073792 1091.155762,880.067444 
	C1102.702393,879.997559 1114.249634,879.996521 1125.796021,880.078308 
	C1126.802246,880.085388 1127.803589,880.811096 1128.921387,881.588623 
z"/>
<path fill="#24B2C8" opacity="1.000000" stroke="none" 
	d="
M1069.695312,880.750854 
	C1062.534546,881.227783 1055.077148,881.410522 1047.313965,881.314026 
	C1054.471680,880.842041 1061.935303,880.649353 1069.695312,880.750854 
z"/>
<path fill="#24B2C8" opacity="1.000000" stroke="none" 
	d="
M1042.694336,880.743286 
	C1037.200928,881.220825 1031.409790,881.406860 1025.312988,881.313782 
	C1030.803833,880.840393 1036.600220,880.646057 1042.694336,880.743286 
z"/>
<path fill="#24B2C8" opacity="1.000000" stroke="none" 
	d="
M1249.967285,880.462036 
	C1248.963135,880.825806 1247.861816,880.877747 1246.350342,880.861877 
	C1247.250244,880.579407 1248.560059,880.364746 1249.967285,880.462036 
z"/>
<path fill="#38AFC2" opacity="1.000000" stroke="none" 
	d="
M862.014648,886.350586 
	C863.924927,885.261353 865.832214,884.262329 867.860352,883.830627 
	C871.002319,883.161987 874.223206,882.854004 877.417419,882.445801 
	C879.050110,882.237183 880.697388,882.018738 882.338318,882.016479 
	C903.107300,881.987732 923.876343,881.997498 944.645325,881.997498 
	C957.221313,881.997498 969.802612,881.781433 982.371216,882.086609 
	C988.882446,882.244629 995.361572,883.456787 1001.873962,883.939880 
	C1005.620178,884.217773 1009.403870,883.990723 1013.584106,883.988159 
	C1013.665833,896.600037 1013.108643,909.213623 1013.047668,921.829651 
	C1012.905640,951.223450 1012.913574,980.618835 1013.048157,1010.012756 
	C1013.098694,1021.059448 1014.046875,1032.109131 1013.890198,1043.147583 
	C1013.742310,1053.564697 1012.824158,1063.980591 1011.967712,1074.374146 
	C1011.441772,1080.756592 1010.052185,1081.266846 1004.624939,1077.804810 
	C1003.655090,1077.186157 1002.629639,1076.654663 1001.263794,1076.055176 
	C1000.274048,1075.259155 999.650330,1074.490723 999.000488,1073.032715 
	C998.398499,1068.718994 996.841064,1065.904663 992.938049,1065.024902 
	C981.907776,1049.794678 970.932922,1034.523804 959.832275,1019.344971 
	C947.679932,1002.727966 935.410156,986.196777 923.193787,969.626526 
	C911.399780,953.629150 899.647400,937.601074 887.800659,921.642822 
	C881.481445,913.130432 875.001587,904.737366 868.298401,896.124023 
	C866.023682,892.870178 864.044800,889.782593 862.014648,886.350586 
z"/>
<path fill="#0397B7" opacity="1.000000" stroke="none" 
	d="
M1012.632568,702.025757 
	C1003.567322,712.264221 994.070923,722.399048 984.808044,732.742981 
	C972.549133,746.432678 960.512573,760.321167 948.302795,774.055237 
	C941.372803,781.850281 934.167786,789.402588 927.302368,797.252808 
	C918.035767,807.848633 909.031982,818.673889 899.808594,829.308167 
	C893.839417,836.190491 887.679321,842.907288 881.306763,849.852783 
	C878.859619,850.895752 876.472961,851.451904 874.629761,852.768799 
	C872.882263,854.017273 871.704163,856.062805 870.476990,857.518982 
	C861.722168,847.015137 861.843445,833.941650 858.898743,821.805969 
	C858.578674,820.487000 857.473755,819.358521 856.368896,818.069946 
	C855.829468,817.447693 855.654053,816.897278 855.239319,816.174683 
	C853.994690,801.974304 852.989380,787.946106 851.967896,773.449219 
	C852.500000,765.592468 852.551208,758.123962 853.731445,750.838257 
	C855.000366,743.005310 859.448364,736.514587 865.194824,730.212280 
	C873.357788,724.558044 881.538208,720.606812 891.288269,719.941040 
	C892.061707,719.635132 892.541687,719.339417 893.437256,719.033325 
	C897.759521,718.352966 901.653687,717.596741 905.575134,717.028625 
	C918.808289,715.111511 932.049194,713.246948 945.290955,711.389954 
	C955.921448,709.899170 966.563599,708.490295 977.189575,706.968628 
	C988.464844,705.354004 999.727173,703.649170 1010.995117,701.983765 
	C1011.431885,701.994263 1011.868652,702.004700 1012.632568,702.025757 
z"/>
<path fill="#2BB1C7" opacity="1.000000" stroke="none" 
	d="
M890.994812,719.951294 
	C881.538208,720.606812 873.357788,724.558044 865.357971,729.920105 
	C861.197571,726.574036 861.600281,723.766418 866.166016,720.898560 
	C869.026978,719.101440 871.714844,717.029602 874.494934,715.102051 
	C875.032715,714.729126 875.641907,714.166748 876.211060,714.174988 
	C885.384216,714.309631 886.729248,707.672913 888.103638,700.810242 
	C888.815552,697.255615 889.970337,693.760010 891.274414,690.372253 
	C891.654724,689.384399 893.138550,688.518677 894.288269,688.180298 
	C900.277710,686.417786 904.349487,681.568481 902.772095,675.502441 
	C900.824646,668.013245 905.941833,665.546326 910.178589,662.094360 
	C910.920715,661.489807 912.489014,661.023682 912.482117,660.509644 
	C912.406494,654.882202 916.302185,655.205017 920.195068,654.579651 
	C922.334534,654.235962 924.409485,652.295044 926.112244,650.657166 
	C930.854858,646.095276 935.332764,641.259583 940.020386,636.638855 
	C944.098694,632.618835 949.310303,632.750244 954.523621,632.988464 
	C957.940369,633.144653 961.312073,633.296875 962.232178,628.660217 
	C962.377319,627.928772 964.218750,627.125854 965.319153,627.058105 
	C972.765442,626.599854 980.250000,626.595459 987.662476,625.850281 
	C990.122925,625.602966 992.944824,624.112732 994.648804,622.296753 
	C997.299744,619.471558 999.052612,615.820557 1001.378540,612.661194 
	C1001.937805,611.901550 1003.520752,611.084229 1004.165405,611.365417 
	C1005.562378,611.974670 1006.854919,613.125916 1007.795166,614.357117 
	C1008.291504,615.007080 1007.952881,616.290710 1008.000549,617.287781 
	C1009.005310,638.314026 1010.092896,659.336853 1010.971069,680.368408 
	C1011.259216,687.269958 1011.004639,694.194214 1010.996704,701.545898 
	C999.727173,703.649170 988.464844,705.354004 977.189575,706.968628 
	C966.563599,708.490295 955.921448,709.899170 945.290955,711.389954 
	C932.049194,713.246948 918.808289,715.111511 905.575134,717.028625 
	C901.653687,717.596741 897.759521,718.352966 893.265137,718.808838 
	C892.116516,719.046936 891.555664,719.499084 890.994812,719.951294 
z"/>
<path fill="#31B3CA" opacity="1.000000" stroke="none" 
	d="
M992.993286,1065.371338 
	C996.841064,1065.904663 998.398499,1068.718994 998.962952,1072.724854 
	C996.983948,1070.643555 995.016235,1068.180664 992.993286,1065.371338 
z"/>
<path fill="#1C9DB4" opacity="1.000000" stroke="none" 
	d="
M897.225464,1006.203003 
	C897.771973,1005.966797 898.256836,1006.018616 898.741699,1006.070435 
	C898.630798,1006.502441 898.519836,1006.934387 898.408813,1007.366333 
	C897.993774,1007.074585 897.578796,1006.782776 897.225464,1006.203003 
z"/>
<path fill="#1C9DB4" opacity="1.000000" stroke="none" 
	d="
M857.450928,882.534180 
	C857.419617,882.480408 857.482178,882.587891 857.450928,882.534180 
z"/>
<path fill="#04B3D1" opacity="1.000000" stroke="none" 
	d="
M1383.067871,876.968140 
	C1382.533936,877.587463 1381.967285,878.205750 1381.400635,878.823975 
	C1381.101562,878.542358 1380.802368,878.260742 1380.503296,877.979126 
	C1381.116577,877.641541 1381.729736,877.303955 1382.687256,876.934082 
	C1383.031616,876.901855 1383.035278,876.967041 1383.067871,876.968140 
z"/>
<path fill="#24B2C8" opacity="1.000000" stroke="none" 
	d="
M891.288269,719.941040 
	C891.555664,719.499084 892.116516,719.046936 892.849548,718.819275 
	C892.541687,719.339417 892.061707,719.635132 891.288269,719.941040 
z"/>
</svg>