<svg xmlns="http://www.w3.org/2000/svg" version="1.1" xmlns:xlink="http://www.w3.org/1999/xlink" xmlns:svgjs="http://svgjs.dev/svgjs" viewBox="0 0 7.820897999402814 6.828115491545619"><g transform="matrix(0.8483325438825544,0,0,0.8483325438825544,2.438163767548494,2.668957174814202)"><rect width="9.041649123648517" height="9.041649123648517" x="-2.7853197261678058" y="-3.6425126588663526" fill="#ffffff"></rect><g><path d=" M -1.5554982220145004 1.1097966610212482 L -0.83921199077412 1.2276441681457202 L -0.8205362787743596 1.4679194639655404 L -1.2437204436299012 1.5981045730046235 L -0.8053477329156334 1.6633300779932778 L -0.786672020915873 1.9036053738130978 L -1.4763008043225705 2.128723434165879 L -1.4927292314758867 1.9173609332787345 L -1.01853303147102 1.798256089124752 L -1.5076852995918772 1.7249412980371357 L -1.524346204487929 1.5105878183638524 L -1.0561527833016227 1.3658711283869809 L -1.539069794861184 1.3211591619083927 L -1.5554982220145004 1.1097966610212482 M -1.276394735986503 0.6126573865082885 L -1.1650062618278998 0.6412512289331572 L -1.1090617875183741 0.42331725775328166 L -0.9647410688259234 0.46036493185158966 L -1.020685543135449 0.6782989030314652 L -0.8976739238472525 0.7098764507528419 L -0.8342701862964568 0.46288461674898296 L -0.682200704184277 0.5019214277116297 L -0.7943382949113705 0.938757965498847 L -1.4771980712749806 0.763465279329 L -1.3650604805478872 0.3266287415417828 L -1.2129909984357072 0.36566555250442956 L -1.276394735986503 0.6126573865082885 M -0.5228979474497135 -0.06920474013101274 L -0.6465953065205448 0.14804848391618491 L -0.5654608220376002 0.2379717591439413 L -0.6673874459119651 0.41698841575883216 L -1.152880652600248 -0.15517445114143102 L -1.0410582400002166 -0.3515713656800976 L -0.3017380524985881 -0.22521211452468415 L -0.40415946580923634 -0.045326445013604444 L -0.5228979474497135 -0.06920474013101274 M -0.6774945642559151 -0.10084152366026078 L -0.9132335017444921 -0.1476085350225107 L -0.7522077691346971 0.03037942366424662 L -0.6774945642559151 -0.10084152366026078 M -0.19459306206900648 -0.5354048309049997 L -0.041697817230922474 -0.6921978285353223 L 0.0656946468994355 -0.5874750580982785 L -0.2240383513097191 -0.29035590733762145 L -0.7287829327224016 -0.7825529283917274 L -0.591945179351331 -0.9228790815220618 L -0.19459306206900648 -0.5354048309049997 M 0.21394602850809008 -1.538966906931003 L 0.2984149074460747 -1.4078142916655798 L 0.14035919161338528 -1.3060184632018548 L 0.4376246694143695 -0.8444621440946926 L 0.2728431784398635 -0.7383345782495324 L -0.024422299361120725 -1.1998908973566946 L -0.18079657140835603 -1.0991780032383285 L -0.26526545034634064 -1.2303306185037515 L 0.21394602850809008 -1.538966906931003 M 1.0890824464194633 -1.8546370288689193 L 1.295600590557629 -1.1805634007378911 L 1.1081985606091447 -1.123148427332103 L 1.0252983694160935 -1.3937340113903742 L 0.7967826288156459 -1.323722895859847 L 0.8796828200086968 -1.053137311801576 L 0.6922807900602124 -0.995722338395788 L 0.4857626459220465 -1.6697959665268163 L 0.673164675870531 -1.727210939932604 L 0.7507920633834585 -1.4738357463798064 L 0.9793078039839064 -1.5438468619103336 L 0.9016804164709789 -1.7972220554631315 L 1.0890824464194633 -1.8546370288689193 M 2.2409282926871685 -1.8805638428973115 L 2.230877060505383 -1.7248879850014005 L 2.0432676932974903 -1.7370010083999627 L 2.0078950877346675 -1.1891417392662764 L 1.8123023431987793 -1.201770210469033 L 1.8476749487616022 -1.7496294796027194 L 1.6620614258857085 -1.761613641050233 L 1.6721126580674943 -1.917289498946144 L 2.2409282926871685 -1.8805638428973115 M 2.639547200520199 -1.0414683787967889 L 2.5894289400656234 -1.3324806808889982 L 2.569517531176175 -1.3391541954081394 L 2.4868930657010933 -1.0926319901102046 L 2.3010532493995735 -1.1549181256221892 L 2.5250926653993133 -1.82337256691082 L 2.818074824772628 -1.7251765675577424 Q 2.8986686226584917 -1.6981647230755041 2.945235501047196 -1.6514445364627393 Q 2.991802379435901 -1.6047243498499744 3.003881249385791 -1.5463603977842202 Q 3.0159601193356806 -1.487996445718466 2.9956217893725836 -1.4273140567220512 Q 2.9727411681640996 -1.3590463691010848 2.917969397096175 -1.3199240852454244 Q 2.8631976260282506 -1.2808018013897637 2.7838282017645204 -1.2831458346753548 L 2.8471947503673056 -0.9718731559543164 L 2.639547200520199 -1.0414683787967889 M 2.612100909536409 -1.4662079473693828 L 2.7040726553591 -1.4353826660190638 Q 2.741999148481859 -1.4226712097921284 2.767000336751033 -1.4343305659119712 Q 2.7920015250202073 -1.445989922031814 2.8034418356244495 -1.4801237658422972 Q 2.8142465734173445 -1.5123612849966426 2.8010060806025616 -1.5373650717102922 Q 2.7877655877877787 -1.5623688584239417 2.7507872569930885 -1.574762528245204 L 2.6588155111703973 -1.605587809595523 L 2.612100909536409 -1.4662079473693828 M 3.387588916630675 -0.7579566121263843 L 3.1829250193933705 -0.9015278110753306 L 3.0857733554967846 -0.8292052405864102 L 2.9171303041732455 -0.947507908520342 L 3.5323955715692232 -1.3770689062100248 L 3.717411734671747 -1.2472805423601774 L 3.5221167844067187 -0.5231114444272567 L 3.35265507749423 -0.6419883971569842 L 3.387588916630675 -0.7579566121263843 M 3.433617512141531 -0.9088949054627606 L 3.5023366208228293 -1.1391940242236624 L 3.310000518210199 -0.9956119096279242 L 3.433617512141531 -0.9088949054627606 M 4.030784638254646 -0.7597498943383794 Q 4.121963957940792 -0.774610300173069 4.20666688518056 -0.7386149655168317 Q 4.291369812420328 -0.7026196308605944 4.354461035352539 -0.6199425627647912 Q 4.434538356766499 -0.51500628402781 4.433091017950583 -0.400690251861049 Q 4.431643679134669 -0.28637421969428795 4.351224896025489 -0.19230074137420744 L 4.223222511038022 -0.36003979299165445 Q 4.2434951022699465 -0.399410112329238 4.239866856710166 -0.4387812417791018 Q 4.236238611150386 -0.4781523712289656 4.209546170679066 -0.5131311308079594 Q 4.168294217223389 -0.5671892137936768 4.105168906344534 -0.5699632228866366 Q 4.042043595465678 -0.5727372319795964 3.977650878967985 -0.5235988756573938 Q 3.9124631906616787 -0.4738538729608431 3.8984762361050254 -0.41223516555610995 Q 3.8844892815483725 -0.3506164581513767 3.9257412350040486 -0.2965583751656592 Q 3.9524336754753686 -0.2615796155866655 3.9894507369969157 -0.24768763385942522 Q 4.026467798518463 -0.233795652132185 4.069792951975618 -0.2429570427424558 L 4.197795336963084 -0.07521799112500882 Q 4.085830942387799 -0.02248304685282987 3.9751872561892116 -0.05126194023649755 Q 3.864543569990624 -0.08004083362016534 3.7844662485766642 -0.18497711235714642 Q 3.7213750256444538 -0.26765418045294964 3.709014532988513 -0.3588543351748713 Q 3.696654040332573 -0.4500544898967929 3.735055125450427 -0.5340774430808565 Q 3.7734562105682805 -0.6181003962649201 3.8569282504726976 -0.6817982655714789 Q 3.9396053185685007 -0.7448894885036896 4.030784638254646 -0.7597498943383794 M 4.194134751808194 0.5884185819118327 L 4.40854131975334 0.2748076388279155 L 4.118301916154248 0.38083635474225636 L 4.051047455574278 0.19673627996742843 L 4.713244153106185 -0.04517389711868913 L 4.780498613686155 0.1389261776561388 L 4.494955640566014 0.24323921855568453 L 4.855645179334183 0.34462983263413527 L 4.933193690002924 0.5569084902826613 L 4.523085879476376 0.43098556248505626 L 4.275457747509486 0.8110293866140481 L 4.194134751808194 0.5884185819118327 M 4.845756227356652 1.0652109514648522 L 4.731217396255193 1.0754995942281782 L 4.751347349487787 1.299597307252773 L 4.602944863973722 1.3129278096156907 L 4.582814910741128 1.088830096591096 L 4.45632420161169 1.1001923368601603 L 4.47913814860863 1.3541697449547008 L 4.322767744409246 1.3682159789881108 L 4.282418371485247 0.9190245631032568 L 4.984591205628976 0.8559507096411286 L 5.024940578552976 1.3051421255259827 L 4.868570174353592 1.319188359559393 L 4.845756227356652 1.0652109514648522 M 4.2670624987769905 1.8520852421455318 L 4.545892503812256 1.7548544430537139 L 4.549205348442559 1.7341173974479513 L 4.292460974275974 1.6931012258346854 L 4.323380857492128 1.4995554668475677 L 5.019553102828444 1.6107723937220007 L 4.97080696041114 1.9159032076353644 Q 4.957397827383725 1.999838868420594 4.918959699833352 2.0534463338561215 Q 4.88052157228298 2.107053799291649 4.824933801444606 2.128553793087473 Q 4.769346030606233 2.150053786883298 4.706147415426766 2.139957498486186 Q 4.635048973349866 2.128599174039435 4.587462705606193 2.080996158145193 Q 4.539876437862521 2.03339314225095 4.52915377800397 1.9547164330826212 L 4.232514261918124 2.06834300346277 L 4.2670624987769905 1.8520852421455318 M 4.681527448974568 1.755256501279404 L 4.666225261872695 1.8510419024107834 Q 4.659915081624501 1.8905410368979503 4.675522080381807 1.9132879397594262 Q 4.691129079139114 1.9360348426209022 4.726678300177564 1.9417140048442774 Q 4.7602525644916565 1.947077658055243 4.782742359931349 1.9299105645015648 Q 4.805232155371043 1.9127434709478868 4.811384581113034 1.8742318148228991 L 4.8266867682149055 1.7784464136915195 L 4.681527448974568 1.755256501279404" fill="#1c3423" fill-rule="nonzero"></path></g><g clip-path="url(#SvgjsClipPath65531)"><g clip-path="url(#SvgjsClipPath65518a71ae66f-5545-4b01-ab9a-e356769370c9)"><path d=" M 2.9174228893839533 2.731501248249615 L 0.40663492227083453 2.731501248249615 C 0.18241631800630137 2.731501248249615 0 2.5490849302433136 0 2.32486632597878 L 0 0.40663492227083453 C 0 0.18241631800630137 0.18241631800630137 0 0.40663492227083453 0 L 2.9174228893839533 0 C 3.1416414936484864 0 3.324057811654788 0.18241631800630137 3.324057811654788 0.40663492227083453 L 3.324057811654788 2.3248663259787805 C 3.324057811654788 2.5490849302433136 3.141641493648487 2.7315012482496153 2.9174228893839533 2.7315012482496153 Z M 0.40663492227083453 0.3261171268372692 C 0.36300149706512075 0.3261171268372692 0.3261171268372692 0.3629840576465733 0.3261171268372692 0.40663492227083453 L 0.3261171268372692 2.3248663259787805 C 0.3261171268372692 2.3685171906030416 0.3629840576465733 2.4053841214123457 0.40663492227083453 2.4053841214123457 L 2.9174228893839533 2.4053841214123457 C 2.9610563145896673 2.4053841214123457 2.997940684817519 2.3685171906030416 2.997940684817519 2.3248663259787805 L 2.997940684817519 0.40663492227083453 C 2.997940684817519 0.36300149706512075 2.9610737540082144 0.3261171268372692 2.9174228893839533 0.3261171268372692 L 0.40663492227083453 0.3261171268372692 Z" fill="#1c3423" transform="matrix(1,0,0,1,0,0)" fill-rule="nonzero"></path></g><g clip-path="url(#SvgjsClipPath65518a71ae66f-5545-4b01-ab9a-e356769370c9)"><path d=" M 0.40663492227083453 0.1630585634186346 L 2.917422889383953 0.1630585634186346 C 3.051946410017368 0.1630585634186346 3.1609992482361533 0.27211140163741904 3.1609992482361533 0.40663492227083453 L 3.1609992482361533 2.32486632597878 C 3.1609992482361533 2.4593898466121957 3.051946410017368 2.5684426848309805 2.917422889383953 2.5684426848309805 L 0.40663492227083453 2.5684426848309805 C 0.27211140163741904 2.5684426848309805 0.1630585634186346 2.4593898466121957 0.1630585634186346 2.32486632597878 L 0.1630585634186346 0.40663492227083453 C 0.1630585634186346 0.27211140163741904 0.27211140163741904 0.1630585634186346 0.40663492227083453 0.1630585634186346 Z" fill="#a4c868" transform="matrix(1,0,0,1,0,0)" fill-rule="nonzero"></path></g><g clip-path="url(#SvgjsClipPath65518a71ae66f-5545-4b01-ab9a-e356769370c9)"><path d=" M 2.1301203390594337 1.0848190307439747 C 2.042975564577838 1.17196380522557 1.9949822847352625 1.2878313020548118 1.9949822847352625 1.4110756729296237 C 1.9949822847352625 1.5343200438044355 2.042975564577838 1.650187540633677 2.1301203390594337 1.7373323151152726 C 2.217265113541029 1.8244770895968678 2.3331326103702708 1.8724703694394436 2.456376981245082 1.8724703694394436 L 3.1609818088176054 1.8724703694394436 L 3.1609818088176054 1.5463532426021742 L 2.456376981245082 1.5463532426021742 C 2.3817711486991016 1.5463532426021742 2.3210819721539844 1.4856640660570568 2.3210819721539844 1.4110582335110762 C 2.3210819721539844 1.3364524009650953 2.3817711486991016 1.2757632244199781 2.456376981245082 1.2757632244199781 L 3.1609818088176054 1.2757632244199781 L 3.1609818088176054 0.9496460975827089 L 2.456376981245082 0.9496460975827089 C 2.3331326103702703 0.9496460975827089 2.217265113541029 0.9976393774252845 2.1301203390594337 1.08478415190688 Z" fill="#67a97b" transform="matrix(1,0,0,1,0,0)" fill-rule="nonzero"></path></g><g clip-path="url(#SvgjsClipPath65518a71ae66f-5545-4b01-ab9a-e356769370c9)"><path d=" M 3.3284176662916494 1.8271627600531748 L 2.4563944206636297 1.8271627600531748 C 2.333150049788818 1.8271627600531748 2.2172825529595763 1.779169480210599 2.130137778477981 1.6920247057290037 C 2.0429930039963855 1.6048799312474082 1.99499972415381 1.4890124344181668 1.99499972415381 1.365768063543355 C 1.99499972415381 1.2425236926685428 2.0429930039963855 1.1266561958393015 2.130137778477981 1.0395114213577061 C 2.2172825529595763 0.9523666468761105 2.3331500497888182 0.9043733670335349 2.4563944206636297 0.9043733670335349 L 3.3284176662916494 0.9043733670335349 C 3.418474823670669 0.9043733670335349 3.491476229710284 0.9773747730731503 3.491476229710284 1.0674319304521696 L 3.491476229710284 1.664139075471635 C 3.491476229710284 1.754196232850654 3.418474823670669 1.8271976388902698 3.3284176662916494 1.8271976388902698 Z M 2.456376981245082 1.2304556150337091 C 2.3817711486991016 1.2304556150337091 2.3210819721539844 1.2911447915788268 2.3210819721539844 1.3657506241248074 C 2.3210819721539844 1.440356456670788 2.3817711486991016 1.5010456332159057 2.456376981245082 1.5010456332159057 L 3.1653416634544675 1.5010456332159057 L 3.1653416634544675 1.2304556150337094 L 2.456376981245082 1.2304556150337094 Z" fill="#1c3423" transform="matrix(1,0,0,1,0,0)" fill-rule="nonzero"></path></g><g clip-path="url(#SvgjsClipPath65518a71ae66f-5545-4b01-ab9a-e356769370c9)"><path d=" M 2.456376981245082 1.0673970516150746 L 3.3284002268731023 1.0673970516150746 L 3.3284002268731023 1.66410419663454 L 2.456376981245082 1.66410419663454 C 2.291713991320082 1.66410419663454 2.1580234087353496 1.5304136140498075 2.1580234087353496 1.3657506241248074 L 2.1580234087353496 1.3657506241248074 C 2.1580234087353496 1.2010876341998076 2.2917139913200826 1.0673970516150746 2.456376981245082 1.0673970516150746 Z" fill="#a4c868" transform="matrix(1,0,0,1,0,0)" fill-rule="nonzero"></path></g><g clip-path="url(#SvgjsClipPath65518a71ae66f-5545-4b01-ab9a-e356769370c9)"><path d=" M 2.4700146065491864 1.2023955905908663 L 2.469997167130639 1.2023955905908663 C 2.5708103475179773 1.2023955905908663 2.6525355610667725 1.2841208041396612 2.6525355610667725 1.3849339845269997 L 2.6525355610667725 1.3849165451084526 C 2.6525355610667725 1.4857297254957909 2.5708103475179773 1.567454939044586 2.469997167130639 1.567454939044586 L 2.4700146065491864 1.567454939044586 C 2.369201426161848 1.567454939044586 2.2874762126130532 1.4857297254957909 2.2874762126130532 1.3849165451084526 L 2.2874762126130532 1.3849339845269997 C 2.2874762126130532 1.2841208041396612 2.369201426161848 1.2023955905908663 2.4700146065491864 1.2023955905908663 Z" fill="#67a97b" transform="matrix(1,0,0,1,0,0)" fill-rule="nonzero"></path></g><g clip-path="url(#SvgjsClipPath65518a71ae66f-5545-4b01-ab9a-e356769370c9)"><path d=" M 2.4700146065491864 1.1849561720434187 L 2.469997167130639 1.1849561720434187 C 2.5708103475179773 1.1849561720434187 2.6525355610667725 1.2666813855922137 2.6525355610667725 1.3674945659795523 L 2.6525355610667725 1.3674771265610048 C 2.6525355610667725 1.4682903069483435 2.5708103475179773 1.5500155204971384 2.469997167130639 1.5500155204971384 L 2.4700146065491864 1.5500155204971384 C 2.369201426161848 1.5500155204971384 2.2874762126130532 1.4682903069483435 2.2874762126130532 1.3674771265610048 L 2.2874762126130532 1.3674945659795523 C 2.2874762126130532 1.2666813855922137 2.369201426161848 1.1849561720434187 2.4700146065491864 1.1849561720434187 Z" fill="#faecd3" transform="matrix(1,0,0,1,0,0)" fill-rule="nonzero"></path></g><g clip-path="url(#SvgjsClipPath65518a71ae66f-5545-4b01-ab9a-e356769370c9)"><path d=" M 2.589369987087917 0.3375573854043948 L 2.6854088650287107 0.3375573854043948 C 2.717192900117869 0.3375573854043948 2.7429589462352877 0.3633234315218136 2.7429589462352877 0.39510746661097174 L 2.7429589462352877 0.39510746661097174 C 2.7429589462352877 0.42689150170012974 2.717192900117869 0.45265754781754863 2.6854088650287107 0.45265754781754863 L 2.589369987087917 0.45265754781754863 C 2.5575859519987594 0.45265754781754863 2.5318199058813406 0.42689150170012974 2.5318199058813406 0.39510746661097174 L 2.5318199058813406 0.39510746661097174 C 2.5318199058813406 0.3633234315218136 2.5575859519987594 0.3375573854043948 2.589369987087917 0.3375573854043948 Z" fill="#1c3423" transform="matrix(1,0,0,1,0,0)" fill-rule="nonzero"></path></g><g clip-path="url(#SvgjsClipPath65518a71ae66f-5545-4b01-ab9a-e356769370c9)"><path d=" M 2.2207878760876136 0.3375573854043948 L 2.3163035714719835 0.3375573854043948 C 2.348087606561142 0.3375573854043948 2.3738536526785605 0.3633234315218136 2.3738536526785605 0.39510746661097174 L 2.3738536526785605 0.39510746661097174 C 2.3738536526785605 0.42689150170012974 2.348087606561142 0.45265754781754863 2.3163035714719835 0.45265754781754863 L 2.2207878760876136 0.45265754781754863 C 2.189003840998456 0.45265754781754863 2.163237794881036 0.42689150170012974 2.163237794881036 0.39510746661097174 L 2.163237794881036 0.39510746661097174 C 2.163237794881036 0.3633234315218136 2.189003840998456 0.3375573854043948 2.2207878760876136 0.3375573854043948 Z" fill="#1c3423" transform="matrix(1,0,0,1,0,0)" fill-rule="nonzero"></path></g><g clip-path="url(#SvgjsClipPath65518a71ae66f-5545-4b01-ab9a-e356769370c9)"><path d=" M 1.8521883256687617 0.3375573854043948 L 1.947704021053132 0.3375573854043948 C 1.97948805614229 0.3375573854043948 2.005254102259709 0.3633234315218136 2.005254102259709 0.39510746661097174 L 2.005254102259709 0.39510746661097174 C 2.005254102259709 0.42689150170012974 1.97948805614229 0.45265754781754863 1.947704021053132 0.45265754781754863 L 1.8521883256687617 0.45265754781754863 C 1.8204042905796038 0.45265754781754863 1.794638244462185 0.42689150170012974 1.794638244462185 0.39510746661097174 L 1.794638244462185 0.39510746661097174 C 1.794638244462185 0.3633234315218136 1.8204042905796038 0.3375573854043948 1.8521883256687617 0.3375573854043948 Z" fill="#1c3423" transform="matrix(1,0,0,1,0,0)" fill-rule="nonzero"></path></g><g clip-path="url(#SvgjsClipPath65518a71ae66f-5545-4b01-ab9a-e356769370c9)"><path d=" M 1.4836062146684579 0.3375573854043948 L 1.5791219100528282 0.3375573854043948 C 1.6109059451419863 0.3375573854043948 1.6366719912594052 0.3633234315218136 1.6366719912594052 0.39510746661097174 L 1.6366719912594052 0.39510746661097174 C 1.6366719912594052 0.42689150170012974 1.6109059451419863 0.45265754781754863 1.5791219100528282 0.45265754781754863 L 1.4836062146684579 0.45265754781754863 C 1.4518221795793 0.45265754781754863 1.426056133461881 0.42689150170012974 1.426056133461881 0.39510746661097174 L 1.426056133461881 0.39510746661097174 C 1.426056133461881 0.3633234315218136 1.4518221795793 0.3375573854043948 1.4836062146684579 0.3375573854043948 Z" fill="#1c3423" transform="matrix(1,0,0,1,0,0)" fill-rule="nonzero"></path></g><g clip-path="url(#SvgjsClipPath65518a71ae66f-5545-4b01-ab9a-e356769370c9)"><path d=" M 1.115024103668154 0.3375573854043948 L 1.2105397990525242 0.3375573854043948 C 1.2423238341416822 0.3375573854043948 1.2680898802591012 0.3633234315218136 1.2680898802591012 0.39510746661097174 L 1.2680898802591012 0.39510746661097174 C 1.2680898802591012 0.42689150170012974 1.2423238341416822 0.45265754781754863 1.2105397990525242 0.45265754781754863 L 1.115024103668154 0.45265754781754863 C 1.083240068578996 0.45265754781754863 1.057474022461577 0.42689150170012974 1.057474022461577 0.39510746661097174 L 1.057474022461577 0.39510746661097174 C 1.057474022461577 0.3633234315218136 1.083240068578996 0.3375573854043948 1.115024103668154 0.3375573854043948 Z" fill="#1c3423" transform="matrix(1,0,0,1,0,0)" fill-rule="nonzero"></path></g><g clip-path="url(#SvgjsClipPath65518a71ae66f-5545-4b01-ab9a-e356769370c9)"><path d=" M 0.7464245532493026 0.3375573854043948 L 0.8419402486336728 0.3375573854043948 C 0.8737242837228308 0.3375573854043948 0.8994903298402497 0.3633234315218136 0.8994903298402497 0.39510746661097174 L 0.8994903298402497 0.39510746661097174 C 0.8994903298402497 0.42689150170012974 0.8737242837228308 0.45265754781754863 0.8419402486336728 0.45265754781754863 L 0.7464245532493026 0.45265754781754863 C 0.7146405181601445 0.45265754781754863 0.6888744720427257 0.42689150170012974 0.6888744720427257 0.39510746661097174 L 0.6888744720427257 0.39510746661097174 C 0.6888744720427257 0.3633234315218136 0.7146405181601445 0.3375573854043948 0.7464245532493026 0.3375573854043948 Z" fill="#1c3423" transform="matrix(1,0,0,1,0,0)" fill-rule="nonzero"></path></g><g clip-path="url(#SvgjsClipPath65518a71ae66f-5545-4b01-ab9a-e356769370c9)"><path d=" M 0.3778424422489986 0.3375573854043948 L 0.47335813763336887 0.3375573854043948 C 0.5051421727225269 0.3375573854043948 0.5309082188399458 0.3633234315218136 0.5309082188399458 0.39510746661097174 L 0.5309082188399458 0.39510746661097174 C 0.5309082188399458 0.42689150170012974 0.5051421727225269 0.45265754781754863 0.47335813763336887 0.45265754781754863 L 0.3778424422489986 0.45265754781754863 C 0.34605840715984054 0.45265754781754863 0.3202923610424217 0.42689150170012974 0.3202923610424217 0.39510746661097174 L 0.3202923610424217 0.39510746661097174 C 0.3202923610424217 0.3633234315218136 0.34605840715984054 0.3375573854043948 0.3778424422489986 0.3375573854043948 Z" fill="#1c3423" transform="matrix(1,0,0,1,0,0)" fill-rule="nonzero"></path></g><g clip-path="url(#SvgjsClipPath65518a71ae66f-5545-4b01-ab9a-e356769370c9)"><path d=" M 2.9756007896582384 0.44848952678470866 C 3.0005042793439936 0.4789387515685521 3.0191818966083095 0.5138699069190895 3.0306047157568874 0.5513472173775543 C 3.042027534905466 0.5888245278360191 3.0161823166181487 0.6235987284196296 2.978879400345158 0.6256565798082284 L 2.978617809066946 0.6256565798082284 C 2.9520052563635413 0.627121490966214 2.928200450046275 0.6099959819526205 2.9203875905370187 0.5845169914547996 C 2.9134118231180395 0.561810868506023 2.902111079899294 0.5406219749708742 2.887078301111394 0.5220489942178426 C 2.870249262213107 0.501261207309285 2.8694470489599246 0.47180602938264615 2.8856831476275984 0.450564817591855 L 2.8858575418130727 0.45033810515073824 C 2.908249755227995 0.4210398819910263 2.9522842870603005 0.41994119862253715 2.975635668495333 0.44848952678470877 Z" fill="#1c3423" transform="matrix(1,0,0,1,0,0)" fill-rule="nonzero"></path></g><g clip-path="url(#SvgjsClipPath65518a71ae66f-5545-4b01-ab9a-e356769370c9)"><path d=" M 2.9860121225310645 0.7832391658029643 L 2.9860121225310645 0.7832391658029643 C 3.017796157620223 0.7832391658029643 3.0435622037376415 0.8090052119203831 3.0435622037376415 0.8407892470095414 L 3.0435622037376415 0.9363049423939114 C 3.0435622037376415 0.9680889774830697 3.017796157620223 0.9938550236004885 2.9860121225310645 0.9938550236004885 L 2.9860121225310645 0.9938550236004885 C 2.9542280874419067 0.9938550236004885 2.928462041324488 0.9680889774830697 2.928462041324488 0.9363049423939114 L 2.928462041324488 0.8407892470095414 C 2.928462041324488 0.8090052119203831 2.9542280874419067 0.7832391658029643 2.9860121225310645 0.7832391658029643 Z" fill="#1c3423" transform="matrix(1,0,0,1,0,0)" fill-rule="nonzero"></path></g><g clip-path="url(#SvgjsClipPath65518a71ae66f-5545-4b01-ab9a-e356769370c9)"><path d=" M 2.589369987087917 2.2788437004320663 L 2.6854088650287107 2.2788437004320663 C 2.717192900117869 2.2788437004320663 2.7429589462352877 2.3046097465494855 2.7429589462352877 2.3363937816386433 L 2.7429589462352877 2.3363937816386433 C 2.7429589462352877 2.368177816727801 2.717192900117869 2.3939438628452203 2.6854088650287107 2.3939438628452203 L 2.589369987087917 2.3939438628452203 C 2.5575859519987594 2.3939438628452203 2.5318199058813406 2.368177816727801 2.5318199058813406 2.3363937816386433 L 2.5318199058813406 2.3363937816386433 C 2.5318199058813406 2.3046097465494855 2.5575859519987594 2.2788437004320663 2.589369987087917 2.2788437004320663 Z" fill="#1c3423" transform="matrix(1,0,0,1,0,0)" fill-rule="nonzero"></path></g><g clip-path="url(#SvgjsClipPath65518a71ae66f-5545-4b01-ab9a-e356769370c9)"><path d=" M 2.2207878760876136 2.2788437004320663 L 2.3163035714719835 2.2788437004320663 C 2.348087606561142 2.2788437004320663 2.3738536526785605 2.3046097465494855 2.3738536526785605 2.3363937816386433 L 2.3738536526785605 2.3363937816386433 C 2.3738536526785605 2.368177816727801 2.348087606561142 2.3939438628452203 2.3163035714719835 2.3939438628452203 L 2.2207878760876136 2.3939438628452203 C 2.189003840998456 2.3939438628452203 2.163237794881036 2.368177816727801 2.163237794881036 2.3363937816386433 L 2.163237794881036 2.3363937816386433 C 2.163237794881036 2.3046097465494855 2.189003840998456 2.2788437004320663 2.2207878760876136 2.2788437004320663 Z" fill="#1c3423" transform="matrix(1,0,0,1,0,0)" fill-rule="nonzero"></path></g><g clip-path="url(#SvgjsClipPath65518a71ae66f-5545-4b01-ab9a-e356769370c9)"><path d=" M 1.8521883256687617 2.2788437004320663 L 1.947704021053132 2.2788437004320663 C 1.97948805614229 2.2788437004320663 2.005254102259709 2.3046097465494855 2.005254102259709 2.3363937816386433 L 2.005254102259709 2.3363937816386433 C 2.005254102259709 2.368177816727801 1.97948805614229 2.3939438628452203 1.947704021053132 2.3939438628452203 L 1.8521883256687617 2.3939438628452203 C 1.8204042905796038 2.3939438628452203 1.794638244462185 2.368177816727801 1.794638244462185 2.3363937816386433 L 1.794638244462185 2.3363937816386433 C 1.794638244462185 2.3046097465494855 1.8204042905796038 2.2788437004320663 1.8521883256687617 2.2788437004320663 Z" fill="#1c3423" transform="matrix(1,0,0,1,0,0)" fill-rule="nonzero"></path></g><g clip-path="url(#SvgjsClipPath65518a71ae66f-5545-4b01-ab9a-e356769370c9)"><path d=" M 1.4836062146684579 2.2788437004320663 L 1.5791219100528282 2.2788437004320663 C 1.6109059451419863 2.2788437004320663 1.6366719912594052 2.3046097465494855 1.6366719912594052 2.3363937816386433 L 1.6366719912594052 2.3363937816386433 C 1.6366719912594052 2.368177816727801 1.6109059451419863 2.3939438628452203 1.5791219100528282 2.3939438628452203 L 1.4836062146684579 2.3939438628452203 C 1.4518221795793 2.3939438628452203 1.426056133461881 2.368177816727801 1.426056133461881 2.3363937816386433 L 1.426056133461881 2.3363937816386433 C 1.426056133461881 2.3046097465494855 1.4518221795793 2.2788437004320663 1.4836062146684579 2.2788437004320663 Z" fill="#1c3423" transform="matrix(1,0,0,1,0,0)" fill-rule="nonzero"></path></g><g clip-path="url(#SvgjsClipPath65518a71ae66f-5545-4b01-ab9a-e356769370c9)"><path d=" M 1.115024103668154 2.2788437004320663 L 1.2105397990525242 2.2788437004320663 C 1.2423238341416822 2.2788437004320663 1.2680898802591012 2.3046097465494855 1.2680898802591012 2.3363937816386433 L 1.2680898802591012 2.3363937816386433 C 1.2680898802591012 2.368177816727801 1.2423238341416822 2.3939438628452203 1.2105397990525242 2.3939438628452203 L 1.115024103668154 2.3939438628452203 C 1.083240068578996 2.3939438628452203 1.057474022461577 2.368177816727801 1.057474022461577 2.3363937816386433 L 1.057474022461577 2.3363937816386433 C 1.057474022461577 2.3046097465494855 1.083240068578996 2.2788437004320663 1.115024103668154 2.2788437004320663 Z" fill="#1c3423" transform="matrix(1,0,0,1,0,0)" fill-rule="nonzero"></path></g><g clip-path="url(#SvgjsClipPath65518a71ae66f-5545-4b01-ab9a-e356769370c9)"><path d=" M 0.7464245532493026 2.2788437004320663 L 0.8419402486336728 2.2788437004320663 C 0.8737242837228308 2.2788437004320663 0.8994903298402497 2.3046097465494855 0.8994903298402497 2.3363937816386433 L 0.8994903298402497 2.3363937816386433 C 0.8994903298402497 2.368177816727801 0.8737242837228308 2.3939438628452203 0.8419402486336728 2.3939438628452203 L 0.7464245532493026 2.3939438628452203 C 0.7146405181601445 2.3939438628452203 0.6888744720427257 2.368177816727801 0.6888744720427257 2.3363937816386433 L 0.6888744720427257 2.3363937816386433 C 0.6888744720427257 2.3046097465494855 0.7146405181601445 2.2788437004320663 0.7464245532493026 2.2788437004320663 Z" fill="#1c3423" transform="matrix(1,0,0,1,0,0)" fill-rule="nonzero"></path></g><g clip-path="url(#SvgjsClipPath65518a71ae66f-5545-4b01-ab9a-e356769370c9)"><path d=" M 0.3778424422489986 2.2788437004320663 L 0.47335813763336887 2.2788437004320663 C 0.5051421727225269 2.2788437004320663 0.5309082188399458 2.3046097465494855 0.5309082188399458 2.3363937816386433 L 0.5309082188399458 2.3363937816386433 C 0.5309082188399458 2.368177816727801 0.5051421727225269 2.3939438628452203 0.47335813763336887 2.3939438628452203 L 0.3778424422489986 2.3939438628452203 C 0.34605840715984054 2.3939438628452203 0.3202923610424217 2.368177816727801 0.3202923610424217 2.3363937816386433 L 0.3202923610424217 2.3363937816386433 C 0.3202923610424217 2.3046097465494855 0.34605840715984054 2.2788437004320663 0.3778424422489986 2.2788437004320663 Z" fill="#1c3423" transform="matrix(1,0,0,1,0,0)" fill-rule="nonzero"></path></g><g clip-path="url(#SvgjsClipPath65518a71ae66f-5545-4b01-ab9a-e356769370c9)"><path d=" M 2.8858226629759787 2.281145703680329 L 2.8856482687905043 2.2809189912392123 C 2.8694121701228306 2.259677779448421 2.870214383376013 2.230205162103235 2.8870434222742998 2.2094348146132248 C 2.9020762010621994 2.190861833860193 2.9133943836994924 2.1696729403250443 2.9203527116999246 2.1469668173762675 C 2.9281655712091808 2.121487826878447 2.9519878169449947 2.104362317864853 2.9785829302298517 2.1058097896042915 L 2.978844521508064 2.1058097896042915 C 3.016147437781054 2.1078676409928905 3.0414520340934006 2.1443857834312454 3.0305698369197933 2.180136591453513 C 3.0191644571897625 2.2176139019119776 3.0004868399254465 2.252545057262515 2.9755659108211434 2.2829942820463587 C 2.952214529386111 2.3115251707899827 2.9081799975538063 2.310443926840041 2.8857877841388837 2.281145703680329 Z" fill="#1c3423" transform="matrix(1,0,0,1,0,0)" fill-rule="nonzero"></path></g><g clip-path="url(#SvgjsClipPath65518a71ae66f-5545-4b01-ab9a-e356769370c9)"><path d=" M 2.9860121225310645 1.7376287852305792 L 2.9860121225310645 1.7376287852305792 C 3.017796157620223 1.7376287852305792 3.0435622037376415 1.7633948313479977 3.0435622037376415 1.795178866437156 L 3.0435622037376415 1.8906945618215263 C 3.0435622037376415 1.9224785969106843 3.017796157620223 1.9482446430281033 2.9860121225310645 1.9482446430281033 L 2.9860121225310645 1.9482446430281033 C 2.9542280874419067 1.9482446430281033 2.928462041324488 1.9224785969106843 2.928462041324488 1.8906945618215263 L 2.928462041324488 1.795178866437156 C 2.928462041324488 1.7633948313479977 2.9542280874419067 1.7376287852305792 2.9860121225310645 1.7376287852305792 Z" fill="#1c3423" transform="matrix(1,0,0,1,0,0)" fill-rule="nonzero"></path></g></g><g><path d=" M -0.5955053476279142 1.3657506241248076 A 2.3412434624830563 2.3412434624830563 0 0 1 4.086981577338198 1.3657506241248076 A 2.3412434624830563 2.3412434624830563 0 0 1 -0.5955053476279142 1.3657506241248076 Z M -0.5455053476279139 1.3657506241248076 A 2.2912434624830564 2.2912434624830564 0 0 0 4.036981577338199 1.3657506241248076 A 2.2912434624830564 2.2912434624830564 0 0 0 -0.5455053476279135 1.3657506241248076 Z" fill="#1c3423" fill-rule="nonzero"></path></g><g transform="matrix(-0.618105261537539,-0.7860953413292885,0.7860953413292885,-0.618105261537539,-3.50117513687643,3.8120383714217896)"><g clip-path="url(#SvgjsClipPath65532)"><path d=" M -0.8246201187385169 2.8554244119093077 C -0.8185026883936892 2.8554244119093077 -0.8153948083936893 2.8512492684610318 -0.8096662773592065 2.843674570529997 L -0.7521809932212755 2.7668658519093077 C -0.7490731132212755 2.762786828461032 -0.7476169504626549 2.7589033594955144 -0.7476169504626549 2.7547271112196525 C -0.7476169504626549 2.7505519677713766 -0.7490731132212755 2.746667393978273 -0.7521809932212755 2.7425894753575837 L -0.8096662773592065 2.665780204323101 C -0.8153948083936893 2.658206169288618 -0.8185026883936892 2.654030694392066 -0.8246201187385169 2.654030694392066 C -0.8308347739109306 2.654030694392066 -0.8339426539109307 2.658206169288618 -0.8396711849454134 2.665780204323101 L -0.8971568005316203 2.7425894753575837 C -0.9002641281178272 2.746667393978273 -0.9017207328074823 2.7505519677713766 -0.9017207328074823 2.7547271112196525 C -0.9017207328074823 2.7589033594955144 -0.9002641281178272 2.762786828461032 -0.8971568005316203 2.7668658519093077 L -0.8396711849454134 2.843674570529997 C -0.8339426539109307 2.8512492684610318 -0.8308347739109306 2.8554244119093077 -0.8246201187385169 2.8554244119093077 Z" fill="#1c3423" transform="matrix(1,0,0,1,0,0)" fill-rule="nonzero"></path></g></g><g transform="matrix(0.618105261537539,-0.7860953413292885,-0.7860953413292885,-0.618105261537539,3.8151474701455648,7.853131637372498)"><g clip-path="url(#SvgjsClipPath65533)"><path d=" M 4.3160963484488 2.8554244119093077 C 4.3222137787936274 2.8554244119093077 4.325321658793628 2.8512492684610318 4.331050189828111 2.843674570529997 L 4.388535473966042 2.7668658519093077 C 4.3916433539660416 2.762786828461032 4.3930995167246625 2.7589033594955144 4.3930995167246625 2.7547271112196525 C 4.3930995167246625 2.7505519677713766 4.3916433539660416 2.746667393978273 4.388535473966042 2.7425894753575837 L 4.331050189828111 2.665780204323101 C 4.325321658793628 2.658206169288618 4.3222137787936274 2.654030694392066 4.3160963484488 2.654030694392066 C 4.309881693276386 2.654030694392066 4.306773813276386 2.658206169288618 4.301045282241904 2.665780204323101 L 4.243559666655697 2.7425894753575837 C 4.24045233906949 2.746667393978273 4.238995734379834 2.7505519677713766 4.238995734379834 2.7547271112196525 C 4.238995734379834 2.7589033594955144 4.24045233906949 2.762786828461032 4.243559666655697 2.7668658519093077 L 4.301045282241904 2.843674570529997 C 4.306773813276386 2.8512492684610318 4.309881693276386 2.8554244119093077 4.3160963484488 2.8554244119093077 Z" fill="#1c3423" transform="matrix(1,0,0,1,0,0)" fill-rule="nonzero"></path></g></g></g><defs><clipPath id="SvgjsClipPath65531"><path d=" M 0 0 h 3.491476229710284 v 2.731501248249615 h -3.491476229710284 Z"></path></clipPath><clipPath id="SvgjsClipPath65518a71ae66f-5545-4b01-ab9a-e356769370c9"><path d=" M 0 0 L 3.491476229710284 0 L 3.491476229710284 2.731501248249615 L 0 2.731501248249615 Z"></path></clipPath><clipPath id="SvgjsClipPath65532"><path d=" M -0.9792959808074824 2.596276053288618 h 0.309351724137931 v 0.32039999999999996 h -0.309351724137931 Z"></path></clipPath><clipPath id="SvgjsClipPath65533"><path d=" M 4.161420486379835 2.596276053288618 h 0.309351724137931 v 0.32039999999999996 h -0.309351724137931 Z"></path></clipPath></defs></svg>